<?xml version="1.0" encoding="UTF-8" standalone="no"?>
<!-- Created with Inkscape (http://www.inkscape.org/) -->

<svg
   xmlns:dc="http://purl.org/dc/elements/1.1/"
   xmlns:cc="http://creativecommons.org/ns#"
   xmlns:rdf="http://www.w3.org/1999/02/22-rdf-syntax-ns#"
   xmlns:svg="http://www.w3.org/2000/svg"
   xmlns="http://www.w3.org/2000/svg"
   xmlns:sodipodi="http://sodipodi.sourceforge.net/DTD/sodipodi-0.dtd"
   xmlns:inkscape="http://www.inkscape.org/namespaces/inkscape"
   version="1.1"
   id="svg2"
   xml:space="preserve"
   width="21cm"
   height="29.700001cm"
   viewBox="0 0 793.70077 1122.5197"
   sodipodi:docname="frontpage.svg"
   inkscape:version="0.92.5 (2060ec1f9f, 2020-04-08)"><metadata
     id="metadata8"><rdf:RDF><cc:Work
         rdf:about=""><dc:format>image/svg+xml</dc:format><dc:type
           rdf:resource="http://purl.org/dc/dcmitype/StillImage" /><dc:title></dc:title></cc:Work></rdf:RDF></metadata><defs
     id="defs6"><clipPath
       clipPathUnits="userSpaceOnUse"
       id="clipPath32"><path
         d="M 0,0 H 595.28003 V 841.89001 H 0 Z"
         id="path30"
         inkscape:connector-curvature="0" /></clipPath><clipPath
       clipPathUnits="userSpaceOnUse"
       id="clipPath152"><path
         d="M 0,0 H 75 V 75 H 0 Z"
         id="path150"
         inkscape:connector-curvature="0" /></clipPath><clipPath
       clipPathUnits="userSpaceOnUse"
       id="clipPath156"><path
         d="M 2.109,3.02 H 72.113 V 73.024 H 2.109 Z"
         id="path154"
         inkscape:connector-curvature="0" /></clipPath><clipPath
       clipPathUnits="userSpaceOnUse"
       id="clipPath160"><path
         d="M 0,0 H 75 V 75 H 0 Z"
         id="path158"
         inkscape:connector-curvature="0" /></clipPath><clipPath
       clipPathUnits="userSpaceOnUse"
       id="clipPath164"><path
         d="M 0,0 H 75 V 75 H 0 Z"
         id="path162"
         inkscape:connector-curvature="0" /></clipPath><clipPath
       clipPathUnits="userSpaceOnUse"
       id="clipPath168"><path
         d="M 0,0 H 75 V 75 H 0 Z"
         id="path166"
         inkscape:connector-curvature="0" /></clipPath></defs><sodipodi:namedview
     pagecolor="#ffffff"
     bordercolor="#666666"
     borderopacity="1"
     objecttolerance="10"
     gridtolerance="10"
     guidetolerance="10"
     inkscape:pageopacity="0"
     inkscape:pageshadow="2"
     inkscape:window-width="2560"
     inkscape:window-height="1411"
     id="namedview4"
     showgrid="false"
     inkscape:zoom="0.5"
     inkscape:cx="992.52689"
     inkscape:cy="369.07689"
     inkscape:window-x="0"
     inkscape:window-y="0"
     inkscape:window-maximized="1"
     inkscape:current-layer="g10"
     units="cm" /><g
     id="g10"
     inkscape:groupmode="layer"
     inkscape:label="master_thesis"
     transform="matrix(1.3333333,0,0,-1.3333333,95.999998,95.999697)"><rect
       style="opacity:1;vector-effect:none;fill:#ffffff;fill-opacity:1;stroke:none;stroke-width:0.75;stroke-linecap:square;stroke-linejoin:miter;stroke-miterlimit:4;stroke-dasharray:none;stroke-dashoffset:0;stroke-opacity:1;paint-order:stroke fill markers"
       id="rect1114"
       width="595.27563"
       height="841.88977"
       x="-72"
       y="-71.999786"
       transform="scale(1,-1)" /><g
       id="g12"><g
         id="g14"><g
           id="g16"><g
             id="g18" /><g
             id="g20"
             transform="translate(-72.001,-769.908)"><g
               id="g22"><g
                 id="g24"
                 transform="scale(1,1.00005)"><g
                   id="g26"><g
                     id="g28" /><g
                     id="g96"><g
                       clip-path="url(#clipPath32)"
                       id="g94"><g
                         transform="matrix(1,0,0,-1,0,841.89001)"
                         id="g92"><g
                           id="g90"><path
                             d="M 1715.062,5363.422 C 1682.52,4775.25 1160.395,4395.215 868.305,3931.652 794.988,3815.316 735.645,3689.391 706.449,3554.5 680.91,3436.488 662.043,3313.559 682.664,3193.32 c 21.875,-127.441 94.848,-236.027 183.277,-327.527 118.274,-122.391 269.422,-205.398 381.004,-334.816 187.192,-217.129 234.082,-506.52 149.922,-777.211 -43.906,-141.211 -120.363,-270.852 -211.668,-386.43 -55.379,-70.102 -119.164,-132.055 -180.883,-196.387 C 933.348,1096.98 865.535,1019.91 802.719,938.895 699.785,806.152 608.855,657.734 569.105,492.984 535.836,355.074 550.934,213.309 609.43,84.488 c 63.285,-139.379 186.586,-240.343 230.652,-389.457 34.168,-115.593 9.086,-234.375 -51.34,-336.332 -57.41,-96.863 -142.972,-175.523 -231.804,-243.101 -123.461,-93.926 -262.098,-167.465 -402.848,-231.715 -0.543,-0.25 0.105,0.695 0.355,0.812 169.821,77.52 336.418,168.907 477.391,292.524 109.473,96 205.875,220.824 221.5,369.82 6.887,65.66 -5.75,131.504 -29.715,192.563 -29.988,76.41 -81.305,136.906 -129.758,201.785 -84.672,113.351 -139.734,246.761 -143.476,389.144 -8.184,311.758 219.633,589.164 419.261,804.289 67.297,72.535 139.282,140.27 202.274,216.742 53.871,65.391 101.496,135.883 142.156,210.188 74.192,135.613 120.543,287.121 124.336,442.113 3.465,141.825 -34.281,281.535 -105.133,404.102 -37.461,64.832 -84.902,123.492 -137.504,176.594 -61.617,62.218 -133.613,110.836 -201.925,165.054 -110.454,87.672 -215.575,191.129 -274.645,321.188 -46.492,102.371 -52.574,214.914 -40.477,325.234 13.856,126.153 44.391,250.137 96.657,365.926 53.898,119.41 127.664,229.055 205.988,333.629 174.277,232.73 378.41,442.805 533.348,689.875 109.757,175.027 187.968,369.504 199.476,577.367 0.012,0.293 0.875,1.012 0.863,0.59"
                             style="fill:#211a52;fill-opacity:1;fill-rule:nonzero;stroke:none"
                             id="path34"
                             inkscape:connector-curvature="0" /><path
                             d="m 1575.867,5272.375 c -21.801,-577.117 -527.086,-958.59 -805.457,-1418 -69.863,-115.301 -125.871,-239.75 -152.176,-372.484 -23.007,-116.114 -39.394,-236.938 -17.117,-354.45 23.633,-124.55 97.024,-229.734 185.281,-317.91 118.036,-117.949 267.618,-196.722 379.227,-321.672 187.211,-209.621 238.141,-492.504 160.293,-759.277 -40.613,-139.176 -113.344,-267.57 -200.863,-382.43 C 1071.98,1276.48 1010.523,1214.668 951.117,1150.547 882.832,1076.82 817.68,1000.113 757.496,919.617 658.871,787.73 572.285,640.695 536.148,478.508 505.902,342.762 523.137,204.051 582.688,78.777 c 64.425,-135.539 187.023,-232.394 232.777,-377.804 35.48,-112.727 12.93,-229.59 -44.551,-330.567 -54.613,-95.933 -137.133,-174.508 -223.051,-242.277 -119.41,-94.184 -254.047,-168.649 -390.914,-234.043 -0.527,-0.254 0.094,0.684 0.34,0.801 165.129,78.902 326.867,171.34 462.934,294.933 105.664,95.981 198.015,219.992 210.777,366.313 5.621,64.48 -7.895,128.805 -32.434,188.25 -30.707,74.383 -82.046,132.805 -130.656,195.57 -84.945,109.66 -141.207,239.488 -147.32,379 -13.371,305.449 205.18,581.285 397.176,795.59 64.714,72.254 134.113,139.879 194.558,215.926 51.676,65.015 97.16,134.933 135.738,208.465 70.399,134.203 113.235,283.511 114.278,435.519 0.972,139.078 -38.426,275.375 -109.973,394.309 -37.836,62.91 -85.347,119.597 -137.832,170.754 -61.457,59.925 -132.871,106.351 -200.765,158.316 -109.778,84.055 -214.594,183.664 -274.727,310.137 -47.328,99.554 -55.227,209.765 -45.262,318.109 11.418,123.902 39.223,245.961 88.469,360.36 50.785,117.98 121.219,226.722 196.195,330.57 166.84,231.125 363.325,440.543 510.969,685.39 104.582,173.454 177.918,365.422 185.621,569.387 0.012,0.281 0.848,1.008 0.832,0.59"
                             style="fill:#211a52;fill-opacity:1;fill-rule:nonzero;stroke:none"
                             id="path36"
                             inkscape:connector-curvature="0" /><path
                             d="M 1459.293,5177.027 C 1445.43,4611 955.059,4230.469 688.148,3776.484 621.156,3662.543 567.871,3539.82 543.812,3409.363 522.766,3295.23 508.277,3176.57 531.645,3061.664 c 24.785,-121.785 98.101,-223.945 185.769,-309.242 117.246,-114.09 264.898,-189.363 375.934,-310.41 186.25,-203.059 239.867,-479.696 167.019,-742.239 C 1222.363,1562.809 1152.742,1436.004 1068.441,1322.27 1017.32,1253.281 957.867,1191.887 900.473,1128.254 834.488,1055.098 771.617,979.047 713.664,899.367 618.699,768.785 535.734,623.512 502.418,464.059 474.535,330.586 493.234,194.836 553.242,72.797 c 64.922,-132.024 186.363,-225.379 233.11,-367.332 36.246,-110.047 15.66,-224.899 -39.375,-324.637 -52.289,-94.754 -132.165,-172.851 -215.508,-240.402 -115.832,-93.883 -246.848,-168.633 -380.168,-234.52 -0.512,-0.25 0.082,0.676 0.32,0.797 160.856,79.488 318.203,172.211 449.981,295.141 102.336,95.461 191.257,218.23 201.863,361.836 4.672,63.281 -9.414,126.164 -34.246,184.121 -31.071,72.519 -82.16,129.121 -130.629,190.019 -84.695,106.399 -141.543,232.93 -149.348,369.621 -17.082,299.266 193.574,572.508 378.992,785.082 62.512,71.672 129.668,138.879 187.918,214.2 49.821,64.41 93.5,133.535 130.356,206.132 67.269,132.473 107.32,279.407 106.371,428.418 -0.856,136.36 -41.258,269.457 -112.938,385.125 -37.914,61.168 -85.226,116.125 -137.336,165.59 -61.035,57.953 -131.644,102.528 -198.875,152.598 -108.707,80.969 -212.757,177.254 -273.355,300.453 -47.691,96.981 -56.867,204.922 -48.508,311.262 9.578,121.609 35.25,241.621 82.035,354.41 48.254,116.316 115.879,223.828 188.028,326.609 160.547,228.735 350.441,436.586 491.988,678.532 100.266,171.394 169.66,360.539 174.562,560.582 0,0.277 0.813,1.004 0.813,0.593"
                             style="fill:#211a52;fill-opacity:1;fill-rule:nonzero;stroke:none"
                             id="path38"
                             inkscape:connector-curvature="0" /><path
                             d="M 1312.582,5078.43 C 1310.129,4523.332 836.957,4140.695 584.27,3690.457 520.848,3577.461 471.031,3456.113 450.02,3327.762 c -18.387,-112.278 -30.254,-228.871 -5.086,-341.039 26.691,-118.899 100.566,-217.594 188.175,-299.461 117.168,-109.532 263.383,-180.414 374.598,-296.879 186.566,-195.367 244.559,-465.481 178.313,-724.254 -34.551,-135 -100.301,-260.66 -180.696,-373.801 -48.75,-68.629 -105.812,-129.98 -160.816,-193.476 C 781.266,1025.848 721.137,950.07 665.902,870.82 575.387,740.961 496.922,596.934 467.402,439.984 c -24.703,-131.379 -3.703,-264.07 57.52,-382.515 66.234,-128.133 187.109,-217.25 235.723,-355.473 37.691,-107.152 19.777,-220.137 -32.207,-318.984 -49.391,-93.903 -126.145,-172.024 -206.508,-239.875 -111.692,-94.301 -238.641,-170.149 -368.024,-237.352 -0.5,-0.258 0.067,0.664 0.297,0.785 156.106,81.082 308.512,175.059 435.262,298.145 98.426,95.582 183.172,217.668 190.742,358.64 3.336,62.122 -11.711,123.481 -37.187,179.801 -31.883,70.473 -83.075,124.949 -131.782,183.692 -85.117,102.621 -143.324,225.531 -153.668,359.359 -22.632,292.996 178.477,564.973 356.043,776.992 59.856,71.481 124.356,138.668 179.981,213.649 47.558,64.121 89.008,132.738 123.711,204.613 63.328,131.168 99.699,275.977 95.832,422.023 -3.528,133.645 -45.742,263.317 -118.285,375.274 -38.356,59.211 -85.809,112.148 -137.875,159.617 -60.961,55.602 -131.047,97.91 -197.934,145.66 -108.145,77.227 -212.031,169.559 -273.852,289.133 -48.656,94.117 -59.773,199.738 -53.671,304.137 6.996,119.39 29.796,237.531 73.437,349 45.008,114.968 109.176,221.683 177.875,323.843 152.867,227.368 334.914,434.832 468.898,674.774 94.899,169.973 159.2,356.734 160.071,552.91 -0.012,0.27 0.777,0.996 0.781,0.598"
                             style="fill:#211a52;fill-opacity:1;fill-rule:nonzero;stroke:none"
                             id="path40"
                             inkscape:connector-curvature="0" /><path
                             d="m 1174.199,4980.559 c 8.246,-544.141 -448.207,-928.278 -687.254,-1374.457 -60,-111.973 -106.5,-231.872 -124.636,-358.082 -15.864,-110.418 -25.258,-224.926 1.562,-334.391 28.445,-116.035 102.75,-211.359 190.195,-289.93 116.954,-105.113 261.633,-171.781 372.887,-283.804 186.609,-187.934 248.645,-451.59 188.684,-706.512 -31.285,-132.988 -93.321,-257.422 -169.949,-369.867 C 899.219,1195.32 844.465,1134.086 791.766,1070.789 731.176,998.02 673.691,922.59 621.07,843.844 534.84,714.82 460.691,572.148 434.77,417.73 413.074,288.484 436.207,158.812 498.488,43.902 c 67.383,-124.336 187.574,-209.367 237.879,-343.925 39,-104.309 23.61,-215.395 -25.445,-313.286 -46.61,-92.988 -120.348,-171.039 -197.82,-239.089 -107.668,-94.575 -230.649,-171.352 -356.18,-239.707 -0.484,-0.262 0.051,0.648 0.273,0.773 151.461,82.469 299.047,177.512 420.926,300.59 94.645,95.578 175.367,216.871 180.082,355.203 2.078,60.953 -13.848,120.809 -39.902,175.523 -32.602,68.469 -83.828,120.887 -132.696,177.528 -85.402,98.957 -144.816,218.32 -157.523,349.3 -27.809,286.766 164.102,557.211 334.082,768.434 57.305,71.215 119.242,138.309 172.32,212.879 45.391,63.754 84.704,131.809 117.336,202.93 59.559,129.793 92.426,272.425 85.84,415.511 -6.023,130.934 -49.898,257.223 -123.152,365.579 -38.735,57.304 -86.266,108.281 -138.203,153.816 -60.825,53.32 -130.336,93.445 -196.813,138.977 -107.488,73.621 -211.09,162.136 -273.98,278.156 -49.5,91.324 -62.422,194.636 -58.446,297.09 4.563,117.16 24.649,233.402 65.286,343.492 41.91,113.554 102.761,219.383 168.14,320.847 145.481,225.789 319.938,432.645 446.66,670.407 89.766,168.433 149.203,352.73 146.297,545.031 -0.015,0.269 0.739,1 0.75,0.598"
                             style="fill:#211a52;fill-opacity:1;fill-rule:nonzero;stroke:none"
                             id="path42"
                             inkscape:connector-curvature="0" /><path
                             d="M 1052.203,4880.496 C 1069.414,4347.238 628.414,3963.039 401.57,3521.672 344.637,3410.895 301.066,3292.594 285.406,3168.566 c -13.699,-108.496 -20.992,-220.898 7.137,-327.761 29.828,-113.254 104.266,-205.453 191.305,-281.012 116.402,-101.07 259.343,-164.008 370.277,-271.953 186.074,-181.098 251.309,-438.492 196.805,-689.387 -28.438,-130.891 -87.153,-253.902 -160.383,-365.41 -44.41,-67.633 -97.059,-128.57 -147.656,-191.512 C 684.723,969.184 629.637,894.285 579.375,816.223 497.012,688.293 426.723,547.195 403.902,395.398 384.805,268.332 409.652,141.621 472.633,30.012 540.77,-90.73 660.012,-172.074 711.578,-303.125 c 39.984,-101.594 26.758,-210.75 -19.687,-307.523 -44.129,-91.938 -115.102,-169.68 -189.903,-237.684 -103.957,-94.512 -223.218,-171.836 -345.129,-240.941 -0.468,-0.266 0.043,0.636 0.262,0.761 147.082,83.379 290.16,179.016 407.567,301.707 91.171,95.278 168.269,215.528 170.57,351.2 1.012,59.785 -15.602,118.195 -42.059,171.394 C 660.09,-197.645 609,-147.121 560.145,-92.414 474.773,3.16 414.527,119.168 399.875,247.348 c -32.066,280.632 151.516,548.953 314.598,758.855 54.976,70.766 114.566,137.574 165.347,211.555 43.426,63.262 80.817,130.633 111.618,200.898 56.203,128.227 86.023,268.598 77.167,408.735 -8.097,128.238 -53.222,251.312 -126.843,356.297 -38.934,55.523 -86.387,104.695 -138.055,148.453 -60.519,51.257 -129.332,89.425 -195.258,132.941 -106.597,70.379 -209.64,155.402 -273.234,268.07 -50.055,88.692 -64.453,189.75 -62.274,290.239 2.508,114.929 20.247,229.211 58.235,337.812 39.176,112.012 97.054,216.774 159.437,317.328 138.821,223.77 306.364,429.461 426.598,664.649 85.164,166.605 140.344,348.261 134.262,536.722 -0.01,0.258 0.715,0.985 0.73,0.594"
                             style="fill:#211a52;fill-opacity:1;fill-rule:nonzero;stroke:none"
                             id="path44"
                             inkscape:connector-curvature="0" /><path
                             d="M 929.438,4778.234 C 955.457,4255.805 529.77,3871.625 314.984,3435.09 c -53.91,-109.559 -94.589,-226.274 -107.812,-348.117 -11.567,-106.59 -16.781,-216.895 12.625,-321.164 31.18,-110.504 105.73,-199.602 192.344,-272.176 C 527.98,2396.551 669.176,2337.312 779.77,2233.402 965.277,2059.074 1033.637,1807.875 984.52,1561.004 958.898,1432.223 903.445,1310.625 833.574,1200.062 791.203,1133.008 740.645,1072.371 692.129,1009.812 636.348,937.898 583.637,863.531 535.711,786.137 457.168,659.344 390.688,519.816 370.926,370.633 354.387,245.754 380.918,121.961 444.566,13.645 513.43,-103.551 631.715,-181.238 684.512,-308.82 c 40.933,-98.899 29.843,-206.125 -14.024,-301.785 -41.679,-90.875 -109.914,-168.297 -182.07,-236.243 -100.281,-94.425 -215.859,-172.269 -334.172,-242.097 -0.457,-0.27 0.027,0.625 0.242,0.75 142.746,84.254 281.356,180.457 394.336,302.734 87.735,94.957 161.246,214.156 161.172,347.188 -0.035,58.621 -17.324,115.593 -44.168,167.285 -33.598,64.683 -84.547,113.336 -133.375,166.121 -85.324,92.222 -146.371,204.902 -162.933,330.297 -36.25,274.543 139.097,540.711 295.355,749.265 52.68,70.305 109.937,136.825 158.449,210.207 41.477,62.754 76.981,129.434 105.961,198.844 52.899,126.652 79.727,264.762 68.629,401.984 -10.133,125.567 -56.476,245.43 -130.445,347.082 -39.121,53.758 -86.477,101.145 -137.879,143.149 -60.203,49.215 -128.313,85.445 -193.684,126.973 -105.699,67.148 -208.164,148.734 -272.433,258.078 -50.586,86.086 -66.438,184.902 -66.028,283.441 0.489,112.699 15.914,225.031 51.289,332.145 36.481,110.461 91.414,214.148 150.84,313.781 132.238,221.73 292.938,426.242 406.758,658.836 80.625,164.777 131.598,343.789 122.402,528.426 -0.015,0.25 0.68,0.972 0.704,0.593"
                             style="fill:#211a52;fill-opacity:1;fill-rule:nonzero;stroke:none"
                             id="path46"
                             inkscape:connector-curvature="0" /><path
                             d="m 808.906,4675.156 c 34.481,-511.672 -376.207,-895.543 -579.254,-1327.144 -50.964,-108.321 -88.836,-223.426 -99.707,-343.09 -9.507,-104.68 -12.73,-212.895 17.883,-314.602 32.465,-107.785 107.07,-193.847 193.219,-263.5 115.215,-93.175 254.641,-148.824 364.832,-248.789 184.844,-167.695 256.16,-412.75 212.242,-655.593 C 895.219,1395.762 842.949,1275.617 776.355,1166.039 735.973,1099.586 687.453,1039.277 640.969,977.121 587.523,905.664 537.133,831.867 491.48,755.184 416.668,629.547 353.895,491.637 337.082,345.055 323.012,222.359 351.145,101.48 415.398,-3.609 c 69.512,-113.7 186.79,-187.825 240.735,-311.981 41.824,-96.242 32.793,-201.539 -8.567,-296.062 -39.293,-89.793 -104.851,-166.86 -174.414,-234.696 -96.679,-94.281 -208.64,-172.566 -323.418,-243.047 -0.441,-0.273 0.02,0.614 0.223,0.739 138.481,85.039 272.699,181.715 381.352,303.515 84.371,94.586 154.382,212.692 152.027,343.094 -1.039,57.461 -18.961,113.012 -46.168,163.223 -34.043,62.828 -84.82,109.644 -133.59,160.551 -85.223,88.937 -146.992,198.347 -165.383,320.98 -40.246,268.496 127.071,532.406 276.664,739.512 50.426,69.832 105.418,136.011 151.707,208.789 39.582,62.219 73.239,128.191 100.457,196.722 49.672,125.059 73.598,260.903 60.383,395.219 -12.105,122.914 -59.578,239.617 -133.84,337.992 -39.269,52.02 -86.5,97.661 -137.609,137.957 -59.855,47.207 -127.242,81.555 -192.035,121.141 -104.762,64.012 -206.602,142.219 -271.481,248.316 -51.062,83.508 -68.296,180.098 -69.586,276.7 -1.453,110.48 11.739,220.859 44.575,326.453 33.863,108.91 85.933,211.488 142.476,310.172 125.821,219.621 279.832,422.84 387.414,652.8 76.207,162.899 123.09,339.25 110.907,520.075 -0.016,0.246 0.66,0.968 0.679,0.601"
                             style="fill:#211a52;fill-opacity:1;fill-rule:nonzero;stroke:none"
                             id="path48"
                             inkscape:connector-curvature="0" /><path
                             d="M 692.965,4572.801 C 735.539,4071.836 339.555,3688.5 147.926,3261.953 99.828,3154.891 64.68,3041.41 56.078,2923.922 48.555,2821.148 47.254,2715.012 79.008,2615.852 112.68,2510.75 187.289,2427.664 272.93,2360.863 387.469,2271.504 525.094,2219.344 634.824,2123.25 818.891,1962.039 893.008,1723.035 854.125,1484.246 833.848,1359.68 784.672,1241.012 721.277,1132.457 682.832,1066.625 636.309,1006.676 591.809,944.949 540.645,873.992 492.516,800.781 449.082,724.832 377.902,600.391 318.738,464.137 304.773,320.16 293.09,199.648 322.738,81.633 387.523,-20.273 c 70.094,-110.258 186.329,-180.907 241.336,-301.684 42.649,-93.625 35.602,-197 -3.316,-290.359 -36.977,-88.7 -99.918,-165.364 -166.941,-233.055 -93.153,-94.074 -201.555,-172.734 -312.852,-243.789 -0.43,-0.274 0.004,0.601 0.203,0.73 134.285,85.731 264.195,182.801 368.606,304.059 81.082,94.164 147.683,211.133 143.136,338.918 -2.004,56.308 -20.527,110.453 -48.054,159.207 -34.45,61.004 -85.028,106.023 -133.707,155.086 -85.067,85.722 -147.496,191.902 -167.625,311.808 -44.059,262.497 115.421,524.067 258.503,729.649 48.235,69.316 101,135.129 145.129,207.25 37.731,61.676 69.59,126.926 95.094,194.57 46.551,123.434 67.672,257.008 52.406,388.445 -13.972,120.278 -62.519,233.856 -136.996,329.016 -39.386,50.317 -86.465,94.254 -137.254,132.871 -59.488,45.239 -126.129,77.762 -190.32,115.449 -103.793,60.957 -204.965,135.868 -270.379,238.758 -51.492,80.981 -70.043,175.367 -72.961,270.043 -3.324,108.27 7.715,216.692 38.09,320.774 31.324,107.332 80.606,208.773 134.336,306.48 119.563,217.438 267.047,419.281 368.559,646.543 71.902,160.988 114.836,334.656 99.793,511.703 -0.028,0.246 0.617,0.961 0.656,0.602"
                             style="fill:#211a52;fill-opacity:1;fill-rule:nonzero;stroke:none"
                             id="path50"
                             inkscape:connector-curvature="0" /><path
                             d="M 581.578,4469.973 C 631.91,3979.645 250.328,3597.086 69.809,3175.676 24.496,3069.91 -8.008,2958.07 -14.426,2842.758 -20.035,2741.879 -19.488,2637.824 13.34,2541.164 48.152,2438.707 122.711,2358.551 207.809,2294.539 321.617,2208.906 457.418,2160.141 566.629,2067.832 749.824,1912.957 826.578,1679.953 792.566,1445.211 774.824,1322.758 728.66,1205.586 668.379,1098.098 631.824,1032.902 587.246,973.34 544.684,912.07 495.754,841.641 449.828,769.055 408.555,693.859 340.922,570.652 285.262,436.074 274.047,294.707 264.66,176.371 295.75,61.203 361.004,-37.586 c 70.601,-106.875 185.75,-174.137 241.742,-291.586 43.418,-91.043 38.285,-192.492 1.734,-284.68 -34.722,-87.578 -95.101,-163.808 -159.64,-231.308 -89.695,-93.817 -194.61,-172.778 -302.488,-244.34 -0.414,-0.277 -0.004,0.59 0.187,0.719 130.16,86.34 255.836,183.722 356.106,304.375 77.863,93.691 141.14,209.492 134.488,334.676 -2.93,55.164 -22.016,107.921 -49.836,155.234 -34.817,59.211 -85.168,102.473 -133.727,149.73 -84.855,82.571 -147.875,185.59 -169.664,302.77 -47.695,256.558 104.149,515.699 240.871,719.668 46.09,68.773 96.688,134.191 138.703,205.652 35.93,61.102 66.04,125.606 89.879,192.348 43.508,121.801 61.922,253.09 44.7,381.676 -15.758,117.656 -65.293,228.16 -139.93,320.152 -39.473,48.656 -86.379,90.918 -136.828,127.898 -59.086,43.332 -124.969,74.063 -188.539,109.914 -102.789,57.961 -203.246,129.668 -269.137,229.391 -51.859,78.512 -71.664,170.715 -76.152,263.469 -5.114,106.074 3.843,212.535 31.832,315.074 28.863,105.758 75.429,206.039 126.422,302.742 113.468,215.188 254.574,415.571 350.179,640.082 67.719,159.043 106.824,330.02 89.039,503.309 -0.031,0.242 0.594,0.953 0.633,0.594"
                             style="fill:#211a52;fill-opacity:1;fill-rule:nonzero;stroke:none"
                             id="path52"
                             inkscape:connector-curvature="0" /><path
                             d="M 474.609,4367.355 C 532.359,3887.57 164.883,3506.027 -4.836,3089.852 c -42.602,-104.461 -72.547,-214.645 -76.855,-327.786 -3.77,-98.984 -1.446,-200.98 32.394,-295.168 35.879,-99.828 110.34,-177.121 194.856,-238.41 113.031,-81.98 246.984,-127.461 355.625,-216.082 182.23,-148.672 261.464,-375.75 232.156,-606.441 C 718.051,1285.629 674.809,1169.988 617.562,1063.578 582.852,999.051 540.176,939.895 499.508,879.117 452.75,809.23 408.98,737.293 369.812,662.879 305.629,540.938 253.379,408.07 244.812,269.301 c -7.171,-116.156 25.282,-228.52 90.942,-324.235 71.039,-103.554 185.07,-167.511 241.973,-281.679 44.121,-88.5 40.832,-188.035 6.585,-279.024 -32.535,-86.445 -90.414,-162.203 -152.519,-229.476 -86.313,-93.5 -187.797,-172.703 -292.316,-244.699 -0.403,-0.282 -0.016,0.574 0.171,0.707 126.106,86.867 247.629,184.476 343.844,304.464 74.719,93.18 134.758,207.778 126.09,330.371 -3.816,54.024 -23.434,105.411 -51.52,151.313 -35.14,57.445 -85.242,98.988 -133.652,144.48 -84.598,79.485 -148.14,179.387 -171.508,293.879 -51.156,250.672 93.239,507.297 223.762,709.575 44,68.211 92.473,133.207 132.434,203.964 34.168,60.524 62.578,124.258 84.8,190.098 40.559,120.137 56.356,249.149 37.262,374.899 -17.461,115.058 -67.918,222.531 -142.656,311.429 -39.531,47.016 -86.231,87.637 -136.32,123.028 -58.664,41.457 -123.774,70.457 -186.704,104.496 -101.75,55.058 -201.453,123.625 -267.753,220.254 -52.184,76.062 -73.18,166.105 -79.168,256.953 -6.836,103.886 0.117,208.402 25.793,309.402 26.48,104.156 70.402,203.266 118.73,298.926 107.535,212.883 242.41,411.722 332.27,633.445 63.656,157.055 99.054,325.32 78.644,494.887 -0.031,0.226 0.566,0.937 0.613,0.597"
                             style="fill:#211a52;fill-opacity:1;fill-rule:nonzero;stroke:none"
                             id="path54"
                             inkscape:connector-curvature="0" /><path
                             d="M 371.309,4264.926 C 436.156,3795.609 82.488,3415.305 -76.738,3004.438 c -39.965,-103.122 -67.426,-211.641 -69.711,-322.622 -1.992,-97.093 2.031,-197.027 36.82,-288.777 36.887,-97.242 111.203,-171.738 195.102,-230.363 112.203,-78.43 244.293,-120.707 352.304,-205.711 181.184,-142.613 262.75,-363.848 237.977,-590.473 C 662.836,1248.258 622.434,1134.164 568.145,1028.879 535.223,965.02 494.41,906.309 455.586,846.035 410.953,776.723 369.281,705.453 332.164,631.844 271.344,511.219 222.406,380.074 216.391,243.902 211.355,129.918 245.094,20.328 311.102,-72.367 c 71.41,-100.289 184.285,-161.031 242.023,-271.965 44.766,-85.996 43.25,-183.621 11.246,-273.398 -30.41,-85.293 -85.848,-160.547 -145.57,-227.559 -83,-93.133 -181.121,-172.512 -282.34,-244.879 -0.391,-0.281 -0.023,0.566 0.156,0.695 122.125,87.313 239.571,185.082 331.824,304.348 71.645,92.617 128.532,205.984 117.93,326.008 -4.672,52.89 -24.781,102.922 -53.098,147.441 -35.433,55.703 -85.257,95.567 -133.492,139.332 -84.289,76.461 -148.293,173.297 -173.164,285.129 -54.445,244.844 82.688,498.867 207.16,699.395 41.961,67.609 88.36,132.156 126.321,202.207 32.453,59.902 59.207,122.879 79.859,187.793 37.695,118.461 50.965,245.195 30.094,368.132 -19.09,112.485 -70.395,216.969 -145.188,302.829 -39.551,45.414 -86.027,84.421 -135.734,118.261 -58.215,39.629 -122.535,66.938 -184.805,99.231 -100.687,52.226 -199.597,117.726 -266.246,211.305 -52.461,73.675 -74.582,161.57 -82.016,250.519 -8.484,101.723 -3.46,204.289 19.973,303.731 24.168,102.558 65.527,200.457 111.254,295.05 101.758,210.524 230.555,407.758 314.836,626.637 59.699,155.047 91.512,320.594 68.598,486.449 -0.039,0.231 0.535,0.938 0.586,0.602"
                             style="fill:#211a52;fill-opacity:1;fill-rule:nonzero;stroke:none"
                             id="path56"
                             inkscape:connector-curvature="0" /><path
                             d="M 272.199,4162.754 C 343.82,3703.82 3.668,3324.969 -145.359,2919.496 c -37.407,-101.773 -62.465,-208.621 -62.797,-317.457 -0.289,-95.195 5.371,-193.094 41.047,-282.43 37.828,-94.691 111.953,-166.437 195.199,-222.464 111.336,-74.961 241.539,-114.133 348.875,-195.61 180.051,-136.687 263.805,-352.156 243.41,-574.73 C 609.738,1210.695 572.094,1098.156 520.684,994.02 489.512,930.863 450.512,872.613 413.488,812.863 370.926,744.16 331.305,673.582 296.184,600.781 238.633,481.496 192.914,352.105 189.352,218.523 c -2.977,-111.824 31.976,-218.66 98.269,-308.398 71.723,-97.082 183.41,-154.687 241.91,-262.437 45.36,-83.532 45.547,-179.25 15.715,-267.805 -28.344,-84.133 -81.391,-158.848 -138.785,-225.563 -79.766,-92.715 -174.582,-172.207 -272.559,-244.879 -0.379,-0.281 -0.035,0.555 0.141,0.684 118.211,87.684 231.656,185.531 320.043,304.023 68.637,92.02 122.457,204.118 110.004,321.59 -5.485,51.766 -26.059,100.465 -54.578,143.617 -35.692,53.997 -85.215,92.219 -133.246,134.29 -83.938,73.507 -148.336,167.332 -174.637,276.527 -57.57,239.074 72.496,490.433 191.066,689.133 39.969,66.988 84.344,131.054 120.352,200.375 30.785,59.277 55.926,121.461 75.058,185.453 34.918,116.762 45.75,241.215 23.184,361.367 -20.648,109.938 -72.73,211.477 -147.519,294.367 -39.551,43.824 -85.778,81.274 -135.082,113.582 -57.747,37.86 -121.266,63.524 -182.86,94.113 -99.59,49.465 -197.672,111.977 -264.609,202.563 -52.688,71.316 -75.883,157.094 -84.696,244.16 -10.062,99.567 -6.898,200.199 14.368,298.078 21.929,100.942 60.789,197.617 103.992,291.133 96.133,208.102 219,403.645 297.859,619.641 55.86,153.008 84.199,315.832 58.891,478.027 -0.039,0.219 0.508,0.918 0.566,0.59"
                             style="fill:#211a52;fill-opacity:1;fill-rule:nonzero;stroke:none"
                             id="path58"
                             inkscape:connector-curvature="0" /><path
                             d="M 176.801,4060.902 C 254.883,3612.27 -72.047,3235.07 -211.172,2835.047 c -34.918,-100.399 -57.644,-205.574 -56.105,-312.254 1.351,-93.332 8.582,-189.195 45.086,-276.156 38.703,-92.16 112.597,-161.227 195.16,-214.715 110.418,-71.567 238.722,-107.742 345.336,-185.766 178.84,-130.89 264.636,-340.668 248.468,-559.199 C 558.34,1172.953 523.367,1061.996 474.762,959.035 445.289,896.598 408.059,838.828 372.793,779.617 332.254,711.547 294.625,641.688 261.445,569.723 207.078,451.809 164.484,324.191 163.285,193.184 c -1,-109.657 35.098,-213.797 101.621,-300.622 71.973,-93.937 182.442,-148.484 241.637,-253.105 45.895,-81.102 47.723,-174.93 20,-262.246 -26.34,-82.953 -77.059,-157.106 -132.172,-223.481 -76.598,-92.253 -168.18,-171.8 -262.973,-244.718 -0.367,-0.282 -0.043,0.543 0.125,0.676 114.372,87.976 223.899,185.835 308.508,303.503 65.699,91.379 116.528,202.184 102.309,317.121 -6.27,50.649 -27.27,98.036 -55.969,139.844 -35.91,52.321 -85.109,88.938 -132.918,129.352 -83.539,70.613 -148.273,161.484 -175.93,268.066 -60.539,233.364 62.645,481.988 175.461,678.797 38.032,66.356 80.43,129.91 114.536,198.481 29.16,58.628 52.738,120.015 70.394,183.07 32.227,115.062 40.707,237.242 16.52,354.637 -22.125,107.41 -74.918,206.046 -149.653,286.007 -39.519,42.297 -85.476,78.204 -134.363,109.032 -57.254,36.117 -119.957,60.187 -180.859,89.109 -98.473,46.785 -195.692,106.375 -262.86,194.027 -52.871,69 -77.082,152.696 -87.215,237.883 -11.57,97.426 -10.195,196.129 8.969,292.434 19.766,99.328 56.195,194.758 96.942,287.16 90.66,205.644 207.746,399.43 281.339,612.512 52.129,150.941 77.114,311.043 49.52,469.589 -0.043,0.219 0.484,0.918 0.547,0.59"
                             style="fill:#211a52;fill-opacity:1;fill-rule:nonzero;stroke:none"
                             id="path60"
                             inkscape:connector-curvature="0" /><path
                             d="M 85.035,3959.434 C 169.273,3521 -144.719,3145.648 -274.23,2751.133 c -32.508,-99.016 -52.981,-202.492 -49.637,-307.043 2.922,-91.453 11.656,-185.309 48.933,-269.922 39.52,-89.684 113.137,-156.109 194.989,-207.133 C 29.52,1898.773 155.91,1865.52 261.758,1790.871 439.309,1665.625 527.012,1461.469 514.91,1246.977 508.602,1135.09 476.227,1025.719 430.348,923.965 402.527,862.25 367.023,804.98 333.473,746.34 294.898,678.918 259.215,609.785 227.93,538.672 176.66,422.156 137.098,296.332 138.172,167.895 c 0.898,-107.512 38.07,-208.969 104.769,-292.938 72.164,-90.844 181.383,-142.422 241.207,-243.961 46.379,-78.711 49.782,-170.652 24.106,-256.719 -24.395,-81.765 -72.84,-155.324 -125.727,-221.336 -73.5,-91.742 -161.906,-171.289 -253.574,-244.39 -0.355,-0.285 -0.051,0.531 0.113,0.664 110.602,88.199 216.282,186.004 297.2,302.797 62.832,90.699 110.757,200.191 94.843,312.613 -7.011,49.535 -28.41,95.629 -57.261,136.117 -36.098,50.668 -84.953,85.723 -132.508,124.52 -83.102,67.785 -148.121,155.746 -177.059,259.758 -63.347,227.707 53.133,473.531 160.348,668.386 36.141,65.692 76.609,128.719 108.863,196.524 27.578,57.976 49.637,118.554 65.86,180.656 29.613,113.344 35.832,233.258 10.109,347.91 -23.531,104.91 -76.977,200.695 -151.606,277.801 -39.464,40.781 -85.132,75.195 -133.582,104.566 -56.742,34.426 -118.617,56.949 -178.812,84.254 -97.332,44.164 -193.649,100.918 -260.996,185.684 -53.012,66.726 -78.18,148.359 -89.574,231.683 -13.012,95.309 -13.36,192.078 3.773,286.817 17.668,97.703 51.742,191.863 90.094,283.144 85.34,203.141 196.785,395.106 265.269,605.243 48.508,148.855 70.254,306.203 40.485,461.156 -0.047,0.211 0.457,0.906 0.523,0.59"
                             style="fill:#211a52;fill-opacity:1;fill-rule:nonzero;stroke:none"
                             id="path62"
                             inkscape:connector-curvature="0" /><path
                             d="m -3.176,3858.387 c 90.102,-428.325 -211.246,-801.649 -331.429,-1190.582 -30.165,-97.617 -48.457,-199.403 -43.387,-301.828 4.437,-89.606 14.609,-181.442 52.597,-263.75 40.282,-87.231 113.586,-151.086 194.692,-199.696 108.476,-65.035 232.941,-95.465 337.976,-166.824 C 383.469,1615.98 472.941,1417.355 464.762,1206.898 460.496,1097.109 430.637,989.348 387.414,888.812 361.203,827.844 327.383,771.094 295.5,713.039 258.848,646.281 225.051,577.914 195.605,507.676 c -48.257,-115.094 -84.878,-239.114 -81.621,-365 2.727,-105.367 40.907,-204.188 107.731,-285.352 72.293,-87.816 180.242,-136.5 240.625,-235.008 46.816,-76.359 51.726,-166.425 28.039,-251.234 -22.512,-80.566 -68.738,-153.5 -119.445,-219.117 -70.473,-91.192 -155.77,-170.68 -244.372,-243.91 -0.339,-0.282 -0.058,0.519 0.098,0.652 106.902,88.352 208.82,186.039 286.133,301.914 60.035,89.984 105.133,198.133 87.605,308.063 -7.722,48.437 -29.492,93.25 -58.464,132.445 -36.258,49.051 -84.75,82.57 -132.032,119.785 -82.621,65.024 -147.863,150.133 -178.015,251.59 -66.004,222.117 43.957,465.086 145.707,657.926 34.297,65.027 72.886,127.5 103.34,194.511 26.035,57.305 46.621,117.059 61.457,178.227 27.086,111.605 31.121,229.254 3.937,341.207 -24.867,102.437 -78.898,195.41 -153.379,269.703 -39.383,39.293 -84.738,72.25 -132.734,100.219 -56.211,32.762 -117.254,53.773 -176.727,79.515 -96.168,41.622 -191.554,95.602 -259.027,177.543 -53.106,64.504 -79.18,144.083 -91.777,225.567 -14.395,93.203 -16.395,188.047 -1.227,281.207 15.645,96.074 47.426,188.969 83.453,279.105 80.172,200.582 186.121,390.668 249.641,597.825 44.996,146.746 63.613,301.367 31.769,452.742 -0.047,0.207 0.438,0.894 0.504,0.586"
                             style="fill:#211a52;fill-opacity:1;fill-rule:nonzero;stroke:none"
                             id="path64"
                             inkscape:connector-curvature="0" /><path
                             d="m -87.906,3757.832 c 95.668,-418.316 -193.317,-789.434 -304.449,-1172.738 -27.895,-96.207 -44.079,-196.301 -37.352,-296.614 5.887,-87.753 17.437,-177.613 56.09,-257.64 40.98,-84.824 113.933,-146.152 194.269,-192.41 107.45,-61.891 229.977,-89.59 334.164,-157.739 C 329.582,1566.355 420.699,1373.195 416.289,1166.758 413.992,1059.055 386.574,952.918 345.93,853.633 321.281,793.406 289.105,737.203 258.852,679.742 224.066,613.68 192.113,546.086 164.453,476.73 119.125,363.078 85.355,240.875 90.711,117.539 95.191,14.301 134.312,-81.91 201.207,-160.328 c 72.375,-84.836 179.027,-130.711 239.906,-226.234 47.199,-74.051 53.563,-162.254 31.793,-245.79 -20.683,-79.363 -64.742,-151.648 -113.32,-216.836 -67.516,-90.597 -149.762,-169.98 -235.359,-243.285 -0.329,-0.281 -0.067,0.508 0.089,0.641 103.274,88.441 201.496,185.945 275.293,300.855 57.305,89.239 99.657,196.024 80.59,303.477 -8.402,47.352 -30.511,90.906 -59.582,128.832 -36.387,47.457 -84.492,79.48 -131.48,115.152 -82.106,62.321 -147.52,144.629 -178.817,243.563 -68.511,216.601 35.106,456.652 131.535,647.43 32.504,64.324 69.258,126.226 97.961,192.437 24.539,56.621 43.692,115.559 57.184,175.758 24.633,109.859 26.57,225.258 -1.996,334.535 -26.133,99.984 -80.695,190.199 -154.977,261.75 -39.281,37.836 -84.304,69.363 -131.832,95.961 -55.664,31.152 -115.859,50.699 -174.601,74.91 -94.981,39.152 -189.41,90.426 -256.953,169.586 -53.168,62.32 -80.09,139.883 -93.84,219.547 -15.707,91.105 -19.297,184.051 -6.028,275.633 13.684,94.449 43.247,186.043 77.016,275.015 75.141,198 175.734,386.141 234.449,590.293 41.586,144.618 57.18,296.508 23.371,444.344 -0.05,0.207 0.411,0.883 0.485,0.586"
                             style="fill:#211a52;fill-opacity:1;fill-rule:nonzero;stroke:none"
                             id="path66"
                             inkscape:connector-curvature="0" /><path
                             d="m -169.242,3657.801 c 100.961,-408.403 -175.946,-777.145 -278.305,-1154.789 -25.687,-94.782 -39.836,-193.176 -31.519,-291.391 7.277,-85.918 20.136,-173.805 59.398,-251.59 41.629,-82.433 114.191,-141.304 193.738,-185.273 106.387,-58.824 226.965,-83.871 330.266,-148.883 173.277,-109.09 265.906,-296.867 265.129,-499.301 C 369.062,1020.965 344.008,916.449 305.871,818.418 282.742,758.977 252.168,703.328 223.496,646.484 190.531,581.133 160.371,514.32 134.445,445.855 91.965,333.68 60.961,213.309 68.324,92.504 74.492,-8.625 114.488,-102.262 181.41,-177.98 c 72.399,-81.922 177.731,-125.059 239.047,-217.653 47.539,-71.777 55.289,-158.125 35.387,-240.387 -18.914,-78.148 -60.86,-149.761 -107.364,-214.496 -64.628,-89.964 -143.882,-169.187 -226.531,-242.511 -0.316,-0.285 -0.074,0.496 0.074,0.629 99.715,88.464 194.329,185.726 264.692,299.632 54.64,88.454 94.324,193.856 73.789,298.864 -9.051,46.269 -31.469,88.582 -60.617,125.261 -36.481,45.895 -84.188,76.465 -130.856,110.621 -81.554,59.684 -147.09,139.243 -179.465,235.688 -70.878,211.148 26.575,448.23 117.825,636.898 30.757,63.606 65.722,124.914 92.718,190.309 23.086,55.922 40.848,114.02 53.043,173.266 22.258,108.117 22.176,221.265 -7.699,327.89 -27.336,97.563 -82.367,185.051 -156.406,253.922 -39.16,36.418 -83.832,66.551 -130.875,91.801 -55.102,29.586 -114.442,47.715 -172.442,70.437 -93.773,36.758 -187.218,85.395 -254.785,161.836 -53.183,60.168 -80.91,135.746 -95.754,213.594 -16.961,89.043 -22.074,180.082 -10.636,270.082 11.793,92.813 39.199,183.117 70.773,270.902 70.258,195.372 165.637,381.536 219.684,582.657 38.285,142.472 50.961,291.621 15.281,435.965 -0.051,0.199 0.391,0.875 0.465,0.574"
                             style="fill:#211a52;fill-opacity:1;fill-rule:nonzero;stroke:none"
                             id="path68"
                             inkscape:connector-curvature="0" /><path
                             d="m -247.25,3558.359 c 105.973,-398.605 -159.133,-764.812 -252.988,-1136.742 -23.555,-93.351 -35.735,-190.047 -25.895,-286.179 8.606,-84.094 22.723,-170.024 62.543,-245.594 42.219,-80.102 114.36,-136.563 193.09,-178.297 105.293,-55.832 223.922,-78.317 326.297,-140.281 C 227.52,1467.312 321.543,1284.832 324.254,1086.375 325.672,982.852 302.906,879.973 267.203,783.227 245.555,724.555 216.539,669.488 189.41,613.266 158.219,548.648 129.801,482.633 105.562,415.074 65.848,304.383 37.52,185.867 46.812,67.578 c 7.782,-99.027 48.598,-190.125 115.493,-263.203 72.375,-79.059 176.367,-119.539 238.062,-209.25 47.832,-69.543 56.91,-154.055 38.809,-235.031 -17.196,-76.93 -57.086,-147.848 -101.559,-212.098 -61.805,-89.297 -138.137,-168.316 -217.89,-241.609 -0.309,-0.282 -0.082,0.488 0.058,0.621 96.227,88.426 187.301,185.387 254.32,298.25 52.047,87.644 89.133,191.644 67.2,294.222 -9.664,45.204 -32.364,86.297 -61.567,121.75 -36.547,44.364 -83.836,73.508 -130.168,106.192 -80.968,57.105 -146.574,133.969 -179.965,227.953 -73.101,205.754 18.356,439.828 104.563,626.332 29.062,62.879 62.281,123.578 87.625,188.145 21.668,55.214 38.082,112.464 49.019,170.746 19.965,106.363 17.942,217.273 -13.175,321.285 -28.469,95.164 -83.914,179.98 -157.676,246.219 -39.008,35.027 -83.316,63.793 -129.863,87.742 -54.516,28.051 -113,44.812 -170.243,66.094 -92.55,34.417 -184.984,80.5 -252.531,154.261 -53.164,58.071 -81.636,131.672 -97.523,207.735 -18.156,86.992 -24.731,176.152 -15.067,264.562 9.969,91.18 35.286,180.172 64.731,266.766 65.515,192.718 155.812,376.836 205.34,574.91 35.082,140.316 44.953,286.738 7.5,427.609 -0.055,0.199 0.363,0.864 0.445,0.578"
                             style="fill:#211a52;fill-opacity:1;fill-rule:nonzero;stroke:none"
                             id="path70"
                             inkscape:connector-curvature="0" /><path
                             d="m -322.012,3459.547 c 110.723,-388.926 -142.863,-752.434 -228.476,-1118.633 -21.489,-91.906 -31.77,-186.898 -20.473,-280.965 9.879,-82.289 25.188,-166.269 65.52,-239.668 42.761,-77.789 114.445,-131.902 192.336,-171.465 104.171,-52.925 220.843,-72.929 322.257,-131.918 170.114,-98.949 265.41,-276.214 271.477,-470.699 C 283.797,944.746 263.246,843.504 229.91,748.066 209.695,690.176 182.195,635.703 156.566,580.133 127.105,516.242 100.375,451.059 77.781,384.414 40.746,275.238 15.016,158.57 26.156,42.773 35.48,-54.16 77.051,-142.762 143.883,-213.246 c 72.301,-76.258 174.933,-114.156 236.949,-201.035 48.078,-67.348 58.43,-150.035 42.078,-229.723 -15.539,-75.707 -53.422,-145.906 -95.914,-209.648 -59.055,-88.594 -132.519,-167.36 -209.441,-240.571 -0.297,-0.281 -0.086,0.477 0.05,0.61 92.809,88.328 180.418,184.937 244.176,296.718 49.512,86.805 84.082,189.387 60.821,289.563 -10.247,44.141 -33.204,84.035 -62.442,118.285 -36.586,42.859 -83.441,70.621 -129.418,101.863 -80.347,54.586 -145.976,128.809 -180.32,220.36 -75.188,200.437 10.445,431.461 91.75,615.75 27.406,62.136 58.93,122.207 82.66,185.929 20.293,54.497 35.398,110.895 45.121,168.215 17.746,104.606 13.856,213.293 -18.43,314.715 -29.539,92.785 -85.343,174.992 -158.785,238.653 -38.836,33.664 -82.765,61.101 -128.804,83.777 -53.922,26.562 -111.536,41.992 -168.012,61.863 -91.313,32.152 -182.711,75.738 -250.188,146.895 -53.113,56.015 -82.285,127.672 -99.164,201.949 -19.289,84.965 -27.265,172.246 -19.308,259.078 8.207,89.559 31.492,177.211 58.871,262.613 60.914,190.032 146.265,372.047 191.418,567.067 31.98,138.144 39.14,281.843 0.011,419.293 -0.058,0.187 0.344,0.851 0.426,0.574"
                             style="fill:#211a52;fill-opacity:1;fill-rule:nonzero;stroke:none"
                             id="path72"
                             inkscape:connector-curvature="0" /><path
                             d="m -393.598,3361.402 c 115.207,-379.34 -127.129,-740.015 -204.765,-1100.449 -19.489,-90.457 -27.934,-183.746 -15.25,-275.765 11.101,-80.485 27.551,-162.559 68.343,-233.813 43.25,-75.52 114.45,-127.332 191.477,-164.777 103.023,-50.086 217.731,-67.696 318.152,-123.778 C 132.812,1368.742 229.27,1196.613 238.555,1006.07 243.398,906.672 224.992,807.082 193.953,712.957 175.129,655.863 149.109,601.988 124.941,547.082 97.156,483.957 72.078,419.59 51.07,353.883 16.645,246.223 -6.578,131.422 6.328,18.105 c 10.805,-94.859 53.078,-180.996 119.797,-248.941 72.184,-73.512 173.434,-108.898 235.719,-193 48.281,-65.195 59.847,-146.07 45.187,-224.465 -13.929,-74.472 -49.863,-143.937 -90.418,-207.148 -56.367,-87.856 -127.031,-166.324 -201.175,-239.41 -0.286,-0.282 -0.094,0.464 0.039,0.597 89.457,88.176 173.679,184.379 234.257,295.043 47.043,85.942 79.172,187.086 54.653,284.887 -10.805,43.094 -33.992,81.805 -63.239,114.879 -36.601,41.383 -83.003,67.789 -128.613,97.629 -79.695,52.133 -145.301,123.762 -180.539,212.914 -77.141,195.199 2.836,423.109 79.367,605.16 25.801,61.375 55.672,120.797 77.84,183.676 18.957,53.762 32.797,109.312 41.34,165.664 15.602,102.84 9.926,209.308 -23.465,308.172 -30.547,90.453 -86.66,170.07 -159.742,231.215 -38.648,32.339 -82.18,58.48 -127.699,79.914 -53.313,25.117 -110.051,39.246 -165.754,57.761 -90.063,29.957 -180.399,71.114 -247.766,139.703 -53.023,53.997 -82.851,123.731 -100.672,196.266 -20.363,82.949 -29.679,168.375 -23.371,253.621 6.508,87.93 27.828,174.254 53.199,258.43 56.45,187.328 136.993,367.219 177.903,559.148 28.98,135.965 33.531,276.946 -7.184,411.008 -0.058,0.188 0.32,0.84 0.41,0.574"
                             style="fill:#211a52;fill-opacity:1;fill-rule:nonzero;stroke:none"
                             id="path74"
                             inkscape:connector-curvature="0" /><path
                             d="m -462.09,3263.965 c 119.445,-369.867 -111.914,-727.57 -181.832,-1082.211 -17.547,-89.012 -24.226,-180.602 -10.211,-270.586 12.262,-78.707 29.793,-158.871 71.004,-228.012 43.691,-73.293 114.371,-122.855 190.524,-158.242 101.843,-47.336 214.589,-62.633 313.988,-115.883 C 88.125,1319.703 185.629,1152.629 197.996,966.012 204.453,868.66 188.121,770.723 159.309,677.922 141.84,621.645 117.258,568.379 94.508,514.148 68.355,451.785 44.879,388.27 25.414,323.496 -6.484,217.371 -27.277,104.445 -12.68,-6.414 c 12.219,-92.801 55.133,-176.512 121.7,-241.969 72.019,-70.824 171.878,-103.773 234.375,-185.144 48.449,-63.078 61.171,-142.157 48.148,-219.254 -12.379,-73.242 -46.41,-141.949 -85.078,-204.61 -53.746,-87.086 -121.664,-165.218 -193.09,-238.129 -0.277,-0.281 -0.102,0.458 0.027,0.586 86.176,87.969 167.082,183.715 224.567,293.235 44.636,85.047 74.394,184.746 48.679,280.191 -11.328,42.059 -34.726,79.606 -63.96,111.524 -36.583,39.941 -82.528,65.031 -127.743,93.496 -79.019,49.734 -144.554,118.824 -180.629,205.613 -78.968,190.02 -4.484,414.797 67.414,594.563 24.235,60.609 52.497,119.367 73.149,181.386 17.656,53.024 30.273,107.703 37.68,163.094 13.527,101.082 6.136,205.352 -28.289,301.68 -31.5,88.152 -87.872,165.226 -160.559,223.906 -38.438,31.035 -81.559,55.926 -126.547,76.156 -52.687,23.699 -108.551,36.578 -163.469,53.77 -88.797,27.824 -178.054,66.617 -245.269,132.691 -52.903,52.024 -83.336,119.875 -102.051,190.664 -21.387,80.961 -31.984,164.535 -27.262,248.215 4.867,86.297 24.289,171.285 47.711,254.23 52.121,184.59 127.985,362.309 164.793,551.153 26.071,133.773 28.117,272.047 -14.097,402.769 -0.063,0.18 0.3,0.832 0.39,0.563"
                             style="fill:#211a52;fill-opacity:1;fill-rule:nonzero;stroke:none"
                             id="path76"
                             inkscape:connector-curvature="0" /><path
                             d="m -527.551,3167.285 c 123.43,-360.515 -97.219,-715.121 -159.668,-1063.957 -15.672,-87.547 -20.648,-177.445 -5.367,-265.406 13.371,-76.949 31.934,-155.219 73.516,-222.297 44.086,-71.094 114.218,-118.461 189.472,-151.84 100.649,-44.656 211.426,-57.715 309.778,-108.211 164.98,-84.711 263.422,-246.804 278.75,-429.519 8,-95.321 -6.328,-191.61 -32.977,-283.063 C 109.793,587.52 86.613,534.891 65.242,481.34 40.676,419.766 18.754,357.098 0.785,293.273 -28.66,188.695 -47.105,77.637 -30.895,-30.781 c 13.571,-90.754 57.075,-172.074 123.45,-235.098 71.812,-68.187 170.261,-98.773 232.918,-177.469 48.578,-61 62.406,-138.297 50.961,-214.093 -10.875,-72.008 -43.051,-139.938 -79.883,-202.024 -51.188,-86.289 -116.426,-164.039 -185.188,-236.734 -0.265,-0.281 -0.109,0.441 0.016,0.574 82.965,87.707 160.629,182.949 215.098,291.289 42.296,84.133 69.753,182.375 42.91,275.492 -11.828,41.032 -35.407,77.438 -64.614,108.227 -36.546,38.519 -82.011,62.328 -126.824,89.457 -78.308,47.394 -143.738,113.996 -180.586,198.449 -80.668,184.906 -11.515,406.523 55.875,583.973 22.719,59.828 49.41,117.914 68.59,179.05 16.399,52.282 27.828,106.102 34.137,160.524 11.523,99.312 2.492,201.394 -32.91,295.242 -32.387,85.86 -88.965,160.449 -161.223,216.727 -38.215,29.761 -80.91,53.414 -125.355,72.476 -52.055,22.332 -107.036,33.992 -161.165,49.91 -87.519,25.739 -175.679,62.239 -242.699,125.864 -52.75,50.078 -83.75,116.07 -103.304,185.14 -22.356,78.996 -34.18,160.739 -30.985,242.836 3.289,84.684 20.867,168.321 42.403,250.031 47.921,181.844 119.238,357.348 152.078,543.094 23.261,131.578 22.89,267.153 -20.731,394.563 -0.066,0.179 0.281,0.82 0.375,0.566"
                             style="fill:#211a52;fill-opacity:1;fill-rule:nonzero;stroke:none"
                             id="path78"
                             inkscape:connector-curvature="0" /><path
                             d="M -590.18,3071.383 C -463,2720.117 -673.203,2368.73 -728.43,2025.711 c -13.863,-86.086 -17.195,-174.285 -0.707,-260.246 14.426,-75.203 33.965,-151.61 75.879,-216.649 44.434,-68.929 113.996,-114.171 188.336,-145.589 99.422,-42.051 208.238,-52.946 305.512,-100.758 C 3.762,1222.266 103.047,1065.047 121.207,886.207 130.684,792.91 118.289,698.285 93.738,608.172 78.848,553.523 57.027,501.543 37,448.676 13.977,387.898 -6.438,326.09 -22.957,263.219 -50.027,160.199 -66.199,51.031 -48.449,-54.973 c 14.863,-88.726 58.902,-167.695 125.047,-228.336 71.562,-65.609 168.593,-93.902 231.363,-169.968 48.664,-58.961 63.547,-134.493 53.629,-208.989 -9.426,-70.773 -39.801,-137.914 -74.84,-199.402 -48.695,-85.461 -111.309,-162.797 -177.465,-235.234 -0.254,-0.282 -0.113,0.433 0.004,0.562 79.82,87.399 154.316,182.09 205.848,289.223 40.019,83.195 65.246,179.969 37.336,270.785 -12.301,40.02 -36.035,75.301 -65.192,104.98 -36.488,37.133 -81.461,59.688 -125.855,85.512 C 83.852,-300.723 18.57,-236.559 -19,-154.402 c -82.246,179.859 -18.266,398.3 44.75,573.39 21.242,59.035 46.41,116.43 64.16,176.688 15.18,51.527 25.457,104.488 30.707,157.937 9.594,97.547 -1.012,197.465 -37.324,288.84 -33.223,83.613 -89.965,155.758 -161.762,209.688 -37.969,28.515 -80.226,50.972 -124.121,68.894 -51.41,20.992 -105.504,31.485 -158.832,46.16 -86.234,23.731 -173.281,57.993 -240.066,119.211 -52.571,48.188 -84.086,112.344 -104.442,179.715 -23.269,77.047 -36.261,156.969 -34.543,237.508 1.774,83.059 17.571,165.351 37.278,245.824 43.855,179.067 110.75,352.328 139.75,534.961 20.543,129.375 17.855,262.27 -27.094,386.418 -0.063,0.168 0.262,0.809 0.359,0.551"
                             style="fill:#211a52;fill-opacity:1;fill-rule:nonzero;stroke:none"
                             id="path80"
                             inkscape:connector-curvature="0" /><path
                             d="m -641.91,2977.957 c 129.371,-342.648 -71.988,-689.922 -121.543,-1026.918 -12.438,-84.578 -14.524,-171.09 2.789,-255.137 15.148,-73.519 35.324,-148.164 77.281,-211.363 44.481,-66.977 113.278,-110.391 186.571,-140.207 98.031,-39.894 204.847,-49.121 300.843,-94.695 C -34.938,1173.195 64.492,1020.41 84.688,845.332 95.227,754 84.34,661.074 61.477,572.406 47.613,518.633 26.918,467.379 7.992,415.289 -13.766,355.395 -32.953,294.543 -48.305,232.688 -73.461,131.344 -87.855,24.094 -69.039,-79.578 c 15.758,-86.781 59.984,-163.606 125.637,-222.168 71.031,-63.359 166.527,-89.801 229.078,-163.527 48.492,-57.149 64.094,-130.997 55.367,-204.157 -8.293,-69.504 -37.172,-135.73 -70.695,-196.476 -46.594,-84.426 -106.942,-161.074 -170.825,-232.969 -0.25,-0.277 -0.117,0.422 -0.003,0.551 77.078,86.746 148.839,180.562 197.925,286.277 38.117,82.094 61.555,177.293 32.977,265.949 -12.59,39.063 -36.332,73.336 -65.313,102.039 -36.265,35.918 -80.652,57.426 -124.519,82.149 -76.649,43.191 -141.5,105.219 -179.43,185.254 -83.031,175.23 -23.23,390.207 36.199,562.691 20.036,58.16 43.938,114.762 60.536,174.067 14.191,50.726 23.558,102.773 27.988,155.238 8.101,95.75 -3.633,193.555 -40.453,282.652 -33.684,81.52 -90.274,151.488 -161.379,203.395 -37.602,27.449 -79.324,48.89 -122.594,65.871 -50.68,19.902 -103.848,29.469 -156.324,43.137 -84.852,22.113 -170.641,54.535 -236.93,113.656 -52.176,46.535 -83.933,109.008 -104.789,174.773 -23.84,75.223 -37.644,153.399 -37.039,232.379 0.629,81.449 15.012,162.328 33.258,241.465 40.594,176.125 103.855,346.867 129.844,526.293 18.406,127.105 13.992,257.344 -31.727,378.445 -0.07,0.168 0.242,0.797 0.34,0.551"
                             style="fill:#211a52;fill-opacity:1;fill-rule:nonzero;stroke:none"
                             id="path82"
                             inkscape:connector-curvature="0" /><path
                             d="m -691.773,2885.535 c 131.464,-334.16 -61.231,-677.308 -105.247,-1008.332 -11.046,-83.086 -11.921,-167.918 6.188,-250.07 15.844,-71.871 36.633,-144.774 78.621,-206.156 44.512,-65.059 112.539,-106.688 184.793,-134.93 96.637,-37.77 201.473,-45.375 296.199,-88.758 C -72.328,1124.531 27.211,976.094 49.379,804.742 60.945,715.359 51.531,624.109 30.32,536.883 17.457,483.98 -2.137,433.457 -19.984,382.133 -40.504,323.141 -58.488,263.215 -72.699,202.371 -95.992,102.684 -108.648,-2.645 -88.801,-104.02 c 16.621,-84.859 61.02,-159.574 126.168,-216.093 70.492,-61.153 164.465,-85.782 226.781,-157.207 48.313,-55.371 64.602,-127.551 57.04,-199.387 -7.188,-68.25 -34.602,-133.559 -66.645,-193.563 -44.531,-83.394 -102.652,-159.347 -164.305,-230.691 -0.238,-0.273 -0.121,0.414 -0.008,0.543 74.383,86.078 143.461,179.02 190.149,283.313 36.254,80.992 57.941,174.632 28.726,261.156 -12.871,38.125 -36.609,71.398 -65.402,99.144 -36.039,34.719 -79.848,55.207 -123.18,78.848 -75.726,41.305 -140.14,101.234 -178.406,179.176 -83.765,170.652 -28.055,382.207 27.871,552.097 18.852,57.282 41.52,113.094 56.989,171.461 13.222,49.911 21.699,101.055 25.335,152.559 6.641,93.973 -6.183,189.691 -43.484,276.535 -34.125,79.453 -90.547,147.281 -160.953,197.199 -37.23,26.399 -78.426,46.86 -121.07,62.922 -49.95,18.817 -102.2,27.477 -153.828,40.16 -83.481,20.536 -168.02,51.164 -233.801,108.215 -51.781,44.918 -83.754,105.727 -105.09,169.922 -24.391,73.418 -38.981,149.867 -39.453,227.297 -0.488,79.848 12.519,159.328 29.332,237.164 37.41,173.203 97.113,341.438 120.16,517.68 16.324,124.847 10.234,252.465 -36.223,370.554 -0.07,0.168 0.227,0.786 0.325,0.551"
                             style="fill:#211a52;fill-opacity:1;fill-rule:nonzero;stroke:none"
                             id="path84"
                             inkscape:connector-curvature="0" /><path
                             d="m -789.945,2794.84 c 141.164,-322.504 -34.914,-665.82 -65.782,-991.754 -7.75,-81.797 -5.464,-164.941 15.317,-244.762 18.183,-69.82 41.25,-140.48 84.656,-199.058 46.016,-62.094 114.203,-100.36 186.035,-125.348 96.071,-33.434 199.063,-37.008 293.465,-75.996 C -117.891,1092.516 -14.883,950.789 13.18,783.727 27.82,696.586 21.977,606.848 4.422,520.605 -6.223,468.301 -23.547,418.078 -39.133,367.141 -57.047,308.57 -72.449,249.199 -84.121,189.07 c -19.129,-98.527 -27.633,-202.179 -4.43,-300.765 19.422,-82.52 65.684,-154.075 131.602,-207.035 71.324,-57.301 164.301,-77.954 227.996,-145.625 49.379,-52.457 68.012,-122.571 63.262,-193.227 -4.516,-67.129 -28.957,-132.125 -58.129,-192.098 -40.539,-83.347 -94.668,-159.91 -152.43,-232.086 -0.223,-0.277 -0.129,0.403 -0.027,0.532 69.687,87.082 133.922,180.691 175.8,284.593 32.52,80.688 50.301,173.231 18.477,256.918 -14.02,36.875 -38.508,68.594 -67.746,94.711 -36.59,32.68 -80.266,51.129 -123.598,72.688 -75.715,37.664 -141.039,93.992 -181.41,168.937 -88.387,164.086 -41.637,373.407 6.867,541.918 16.348,56.817 36.489,112.328 49.481,170.086 11.109,49.391 17.519,99.817 19.176,150.395 3.031,92.32 -13.079,185.613 -52.836,269.308 -36.372,76.586 -94.161,140.946 -164.985,187.246 -37.453,24.481 -78.566,43.008 -120.941,57.161 -49.633,16.593 -101.141,23.144 -152.192,33.66 -82.543,17.031 -166.5,43.898 -233.058,97.363 -52.391,42.09 -85.969,100.48 -109.246,162.578 -26.614,71.035 -43.735,145.387 -47.063,221.219 -3.437,78.219 6.363,156.562 19.953,233.441 30.243,171.071 82.504,338.09 98.559,511.614 11.371,122.921 0.684,247.707 -49.203,361.683 -0.074,0.168 0.195,0.781 0.297,0.555"
                             style="fill:#211a52;fill-opacity:1;fill-rule:nonzero;stroke:none"
                             id="path86"
                             inkscape:connector-curvature="0" /><path
                             d="M 1742.277,5359.516 C 1709.738,4771.344 1187.609,4391.309 895.52,3927.746 822.199,3811.402 762.859,3685.48 733.664,3550.59 c -25.539,-118.008 -44.406,-240.942 -23.785,-361.176 21.875,-127.445 94.848,-236.031 183.277,-327.527 118.274,-122.391 269.418,-205.403 381,-334.821 187.196,-217.128 234.09,-506.515 149.93,-777.211 -43.906,-141.207 -120.367,-270.851 -211.668,-386.429 -55.387,-70.106 -119.164,-132.055 -180.887,-196.387 C 960.562,1093.07 892.754,1016.004 829.938,934.984 727,802.242 636.07,653.82 596.32,489.078 563.051,351.164 578.148,209.398 636.645,80.582 699.93,-58.805 823.23,-159.766 867.297,-308.875 c 34.168,-115.602 9.086,-234.375 -51.34,-336.336 -57.406,-96.859 -142.973,-175.519 -231.805,-243.101 -123.461,-93.922 -262.097,-167.465 -402.847,-231.715 -0.543,-0.246 0.101,0.699 0.363,0.816 169.812,77.516 336.406,168.902 477.383,292.523 109.472,96 205.875,220.825 221.5,369.821 6.887,65.66 -5.75,131.5 -29.715,192.558 -29.988,76.411 -81.305,136.911 -129.762,201.789 -84.668,113.352 -139.73,246.754 -143.472,389.145 -8.18,311.758 219.632,589.16 419.261,804.289 67.293,72.527 139.282,140.266 202.274,216.734 53.871,65.395 101.496,135.891 142.16,210.192 74.191,135.613 120.539,287.125 124.332,442.113 3.465,141.82 -34.281,281.535 -105.133,404.106 -37.465,64.832 -84.902,123.488 -137.508,176.589 -61.609,62.223 -133.609,110.832 -201.922,165.059 -110.449,87.668 -215.578,191.129 -274.644,321.188 -46.492,102.371 -52.574,214.914 -40.477,325.23 13.856,126.152 44.391,250.137 96.657,365.93 53.898,119.41 127.668,229.054 205.988,333.629 174.277,232.722 378.406,442.8 533.348,689.871 109.757,175.031 187.968,369.507 199.48,577.371 0.012,0.289 0.875,1.012 0.859,0.59"
                             style="fill:#211a52;fill-opacity:1;fill-rule:nonzero;stroke:none"
                             id="path88"
                             inkscape:connector-curvature="0" /></g></g></g></g></g></g></g><g
               id="g98"
               transform="translate(72.001,769.908)" /></g></g></g></g><g
       id="g100"
       transform="translate(-14.257,-368.521)"><path
         d="M 0,0 H 479.79 V 202.451 H 0 Z"
         style="fill:#ffffff;fill-opacity:1;fill-rule:nonzero;stroke:none"
         id="path102"
         inkscape:connector-curvature="0" /></g><g
       id="g104"
       transform="translate(-72,-769.89)"><text
         transform="matrix(1,0,0,-1,122.717,565.512)"
         style="font-variant:normal;font-size:24.78709984px;font-family:'Nimbus Roman';-inkscape-font-specification:NimbusRomNo9L-Medi;writing-mode:lr-tb;fill:#211a52;fill-opacity:1;fill-rule:nonzero;stroke:none"
         id="text110"><tspan
           x="0 17.896286 28.901758 39.90723 59.885635 77.781921 88.787392 95.678207 109.45983 117.09426 129.48781 140.04712 151.05258 162.05806 182.70572 193.71118 207.49281 221.9437 238.47668 249.48216 261.8757 272.50937 286.29102 293.18182 306.96344 325.55377 333.1882 345.58176"
           y="0"
           sodipodi:role="line"
           id="tspan106">DeepReinforcementLearningfor</tspan><tspan
           x="8.4280005 26.324286 38.717834 52.499462 64.893013 73.147118 80.037933 97.240181 116.52454 127.53001 139.92357 149.56575 163.34738 170.23819 184.01982 202.61014 210.86424 221.42355 233.81709 260.66153 279.94589 290.95135 299.20547 309.76477 320.77023 331.77573"
           y="29.888"
           sodipodi:role="line"
           id="tspan108">RoboticGraspingfromOctrees</tspan></text>
<text
         transform="matrix(1,0,0,-1,67.48,503.632)"
         style="font-variant:normal;font-size:20.66250038px;font-family:'Nimbus Roman';-inkscape-font-specification:NimbusRomNo9L-Regu;writing-mode:lr-tb;fill:#211a52;fill-opacity:1;fill-rule:nonzero;stroke:none"
         id="text116"><tspan
           x="0 12.624787 21.798937 30.973087 37.853699 48.184952 53.929127 64.260376 79.757248 98.126213 107.30036 117.63161 123.37579 133.70703 144.03828 149.78246 158.95662 164.70079 170.44496 180.77621 196.27309 203.1537 210.03432 220.36557 241.60661 255.3885 265.71976 281.79517 292.12643 301.30057 310.47473 321.38452 331.71579 351.79971 366.71805 377.04929 385.08701 394.26117 401.14178 410.95645 420.13062 425.87479 431.61896 441.95023 452.28146"
           y="0"
           sodipodi:role="line"
           id="tspan112">LearningManipulationfromCompact3DObservations</tspan><tspan
           x="170.97099 185.88933 196.22058 206.55182 213.43243 222.60658 233.51639 248.43471 255.31532 263.35303 273.6843 279.42847"
           y="34.423"
           sodipodi:role="line"
           id="tspan114">AndrejOrsula</tspan></text>
<text
         transform="matrix(1,0,0,-1,267.029,449.079)"
         style="font-variant:normal;font-size:17.2154007px;font-family:'Nimbus Roman';-inkscape-font-specification:NimbusRomNo9L-Regu;writing-mode:lr-tb;fill:#211a52;fill-opacity:1;fill-rule:nonzero;stroke:none"
         id="text120"><tspan
           x="0 11.482672 20.090372 28.698072 37.305771 42.091652 46.877533 54.521172"
           y="0"
           sodipodi:role="line"
           id="tspan118">Robotics</tspan></text>
<text
         transform="matrix(1,0,0,-1,250.918,423.24)"
         style="font-variant:normal;font-size:14.34619999px;font-family:'Nimbus Roman';-inkscape-font-specification:NimbusRomNo9L-Regu;writing-mode:lr-tb;fill:#211a52;fill-opacity:1;fill-rule:nonzero;stroke:none"
         id="text124"><tspan
           x="0 12.753772 19.123484 24.704157 28.6924 35.062111 39.839397 43.827641 52.994862 61.760391 68.933495 75.303207 80.883873 84.872116"
           y="0"
           sodipodi:role="line"
           id="tspan122">MastersThesis</tspan></text>
<g
         id="g126"
         transform="translate(54.754,598.151)"><path
           d="M 0,0 H 485.768 V 5.669 H 0 Z"
           style="fill:#211a52;fill-opacity:1;fill-rule:nonzero;stroke:none"
           id="path128"
           inkscape:connector-curvature="0" /></g><g
         id="g130"
         transform="translate(54.754,404.203)"><path
           d="M 0,0 H 5.669 V 196.782 H 0 Z"
           style="fill:#211a52;fill-opacity:1;fill-rule:nonzero;stroke:none"
           id="path132"
           inkscape:connector-curvature="0" /></g><g
         id="g134"
         transform="translate(534.853,404.203)"><path
           d="M 0,0 H 5.669 V 196.782 H 0 Z"
           style="fill:#211a52;fill-opacity:1;fill-rule:nonzero;stroke:none"
           id="path136"
           inkscape:connector-curvature="0" /></g><g
         id="g138"
         transform="translate(54.754,401.369)"><path
           d="M 0,0 H 485.768 V 5.669 H 0 Z"
           style="fill:#211a52;fill-opacity:1;fill-rule:nonzero;stroke:none"
           id="path140"
           inkscape:connector-curvature="0" /></g><g
         id="g142"
         transform="translate(223.968,50.315)"><g
           id="g144"
           transform="scale(1.92506)"><g
             id="g146"><g
               id="g148" /><g
               id="g288"><g
                 clip-path="url(#clipPath152)"
                 id="g286"><g
                   transform="matrix(1,0,0,-1,0,75)"
                   id="g284"><g
                     id="g186"><path
                       d="M 75,37.5 C 75,58.211 58.211,75 37.5,75 16.789,75 0,58.211 0,37.5 0,16.793 16.789,0 37.5,0 58.211,0 75,16.793 75,37.5 Z"
                       style="fill:#211a52;fill-opacity:1;fill-rule:nonzero;stroke:none"
                       id="path170"
                       inkscape:connector-curvature="0" /><path
                       d="M 5.691,49.008 6.695,48.25 6.691,48.23 5.422,48.223 Z M 7.559,47.32 c 0.039,0 0.07,0.024 0.082,0.059 l 0.332,0.98 c 0.015,0.036 0,0.067 -0.028,0.09 L 4.879,51.023 C 4.848,51.047 4.82,51.035 4.809,51 L 4.477,50.02 c -0.016,-0.043 0,-0.075 0.027,-0.102 L 5,49.539 4.547,48.219 H 3.926 c -0.039,0 -0.071,-0.016 -0.086,-0.055 L 3.508,47.184 C 3.496,47.148 3.512,47.125 3.547,47.125 l 4.012,0.195"
                       style="fill:#ffffff;fill-opacity:0.86547098;fill-rule:nonzero;stroke:none"
                       id="path172"
                       inkscape:connector-curvature="0" /><path
                       d="M 8,54.121 8.863,53.199 8.859,53.184 7.602,53.387 Z m 1.559,-1.98 c 0.035,-0.004 0.07,0.007 0.093,0.043 l 0.485,0.906 c 0.019,0.039 0.011,0.07 -0.012,0.101 L 7.531,56.246 C 7.512,56.273 7.48,56.266 7.461,56.23 L 6.969,55.316 C 6.949,55.277 6.957,55.246 6.98,55.219 L 7.406,54.758 6.742,53.535 6.129,53.641 C 6.09,53.648 6.059,53.637 6.039,53.598 L 5.547,52.688 C 5.527,52.656 5.539,52.629 5.578,52.621 l 3.981,-0.48"
                       style="fill:#ffffff;fill-opacity:0.86547098;fill-rule:nonzero;stroke:none"
                       id="path174"
                       inkscape:connector-curvature="0" /><path
                       d="m 11.633,55.625 c 0.027,-0.02 0.058,-0.016 0.082,0.016 l 0.597,0.781 c 0.02,0.031 0.02,0.066 -0.007,0.086 l -2.289,1.742 c -0.02,0.012 -0.02,0.031 -0.004,0.051 l 1.097,1.441 c 0.024,0.031 0.02,0.063 -0.007,0.086 l -0.61,0.465 C 10.465,60.316 10.43,60.309 10.41,60.277 L 8.652,57.973 C 8.629,57.945 8.633,57.91 8.66,57.891 l 2.973,-2.266"
                       style="fill:#ffffff;fill-opacity:0.86547098;fill-rule:nonzero;stroke:none"
                       id="path176"
                       inkscape:connector-curvature="0" /><path
                       d="m 14.574,61.316 c 0.238,0.231 0.453,0.262 0.637,0.075 0.195,-0.196 0.156,-0.407 -0.086,-0.641 l -0.324,-0.312 c -0.016,-0.016 -0.035,-0.016 -0.051,0 l -0.504,0.523 c -0.016,0.008 -0.016,0.027 0.004,0.047 z m -1.402,0.805 0.363,0.348 c 0.246,0.242 0.481,0.258 0.676,0.054 0.184,-0.187 0.172,-0.433 -0.078,-0.671 l -0.36,-0.356 c -0.019,-0.012 -0.035,-0.012 -0.05,0 l -0.555,0.574 c -0.02,0.016 -0.016,0.032 0.004,0.051 z m 1.289,-2.98 c 0.023,-0.024 0.059,-0.024 0.086,0.004 l 1.254,1.214 c 0.687,0.664 0.719,1.27 0.289,1.707 -0.278,0.286 -0.61,0.34 -0.949,0.231 l -0.008,0.008 c 0.148,0.297 0.129,0.722 -0.184,1.047 -0.523,0.539 -1.195,0.382 -1.844,-0.243 L 11.867,61.91 C 11.84,61.883 11.84,61.852 11.863,61.824 l 2.598,-2.683"
                       style="fill:#ffffff;fill-opacity:0.86547098;fill-rule:nonzero;stroke:none"
                       id="path178"
                       inkscape:connector-curvature="0" /><path
                       d="m 18.332,65.859 c 0.113,-0.082 0.227,-0.214 0.492,-0.589 0.262,-0.379 0.356,-0.528 0.391,-0.665 0.062,-0.214 -0.027,-0.429 -0.254,-0.593 -0.227,-0.157 -0.461,-0.168 -0.645,-0.032 -0.117,0.075 -0.226,0.211 -0.492,0.582 -0.262,0.379 -0.355,0.528 -0.39,0.665 -0.063,0.218 0.027,0.429 0.254,0.593 0.222,0.157 0.46,0.164 0.644,0.039 z M 16.41,64.848 c 0.086,-0.297 0.195,-0.496 0.496,-0.922 0.305,-0.434 0.457,-0.606 0.711,-0.789 0.547,-0.383 1.238,-0.282 1.856,0.152 0.617,0.43 0.945,1.051 0.765,1.695 -0.082,0.301 -0.191,0.496 -0.496,0.926 -0.304,0.434 -0.449,0.606 -0.711,0.785 -0.547,0.383 -1.238,0.285 -1.855,-0.152 -0.617,-0.43 -0.946,-1.051 -0.766,-1.695"
                       style="fill:#ffffff;fill-opacity:0.86547098;fill-rule:nonzero;stroke:none"
                       id="path180"
                       inkscape:connector-curvature="0" /><path
                       d="m 23.668,67.246 c 0.113,-0.226 0.012,-0.453 -0.27,-0.59 L 22.871,66.398 C 22.84,66.387 22.828,66.391 22.82,66.41 l -0.328,0.672 c -0.012,0.02 -0.004,0.035 0.016,0.047 l 0.535,0.262 c 0.281,0.14 0.519,0.078 0.625,-0.145 z m -1.082,2.359 c -0.051,-0.027 -0.063,-0.046 -0.063,-0.093 l -0.007,-1.465 -0.368,-0.18 c -0.019,-0.012 -0.039,-0.008 -0.046,0.012 l -0.563,1.152 c -0.016,0.031 -0.047,0.043 -0.078,0.024 l -0.883,-0.43 c -0.035,-0.016 -0.047,-0.047 -0.035,-0.078 l 1.641,-3.359 c 0.015,-0.032 0.046,-0.043 0.082,-0.028 l 1.562,0.77 c 0.883,0.429 1.16,1.14 0.844,1.793 -0.211,0.429 -0.61,0.675 -1.106,0.652 l 0.067,1.668 c 0,0.039 -0.031,0.062 -0.074,0.039 l -0.973,-0.477"
                       style="fill:#ffffff;fill-opacity:0.86547098;fill-rule:nonzero;stroke:none"
                       id="path182"
                       inkscape:connector-curvature="0" /><path
                       d="m 26.051,69 c 0.152,-0.508 0.246,-0.715 0.429,-0.969 0.399,-0.531 1.086,-0.656 1.813,-0.433 0.754,0.226 1.16,0.699 1.246,1.238 0.004,0.043 -0.016,0.074 -0.059,0.078 l -0.871,0.059 c -0.039,0.004 -0.074,-0.016 -0.082,-0.047 -0.078,-0.246 -0.211,-0.391 -0.492,-0.477 -0.273,-0.086 -0.496,-0.019 -0.629,0.164 -0.09,0.114 -0.152,0.278 -0.285,0.711 -0.133,0.438 -0.168,0.614 -0.164,0.75 0.016,0.227 0.168,0.406 0.465,0.5 0.262,0.078 0.504,0.035 0.629,-0.133 0.043,-0.054 0.078,-0.129 0.109,-0.226 0.004,-0.02 -0.004,-0.039 -0.027,-0.043 l -0.445,-0.133 c -0.04,-0.019 -0.055,-0.043 -0.047,-0.074 l 0.187,-0.613 c 0.012,-0.036 0.043,-0.047 0.078,-0.036 l 1.461,0.442 c 0.039,0.015 0.051,0.043 0.043,0.078 l -0.086,0.277 c -0.105,0.352 -0.211,0.621 -0.367,0.825 -0.402,0.546 -1.082,0.703 -1.828,0.472 C 26.402,71.188 25.898,70.707 25.871,70.039 25.859,69.73 25.898,69.5 26.051,69"
                       style="fill:#ffffff;fill-opacity:0.86547098;fill-rule:nonzero;stroke:none"
                       id="path184"
                       inkscape:connector-curvature="0" /></g><g
                     id="g240"><g
                       clip-path="url(#clipPath156)"
                       id="g238"><g
                         id="g198"><g
                           id="g188" /><g
                           id="g196"><g
                             clip-path="url(#clipPath160)"
                             id="g194"><g
                               id="g192"><path
                                 d="m 33.945,71.246 0.11,-2.305 c 0.004,-0.031 0.031,-0.05 0.07,-0.05 l 0.98,0.047 c 0.036,0.003 0.059,0.027 0.059,0.062 l -0.117,2.363 c -0.02,0.383 0.211,0.614 0.566,0.633 0.371,0.02 0.602,-0.187 0.625,-0.57 l 0.114,-2.364 c 0,-0.035 0.027,-0.054 0.066,-0.054 l 0.98,0.047 c 0.036,0.004 0.063,0.027 0.059,0.062 l -0.117,2.301 c -0.047,1.023 -0.754,1.52 -1.774,1.469 -1.035,-0.051 -1.675,-0.621 -1.621,-1.641"
                                 style="fill:#ffffff;fill-opacity:0.86547098;fill-rule:nonzero;stroke:none"
                                 id="path190"
                                 inkscape:connector-curvature="0" /></g></g></g></g><g
                         id="g210"><g
                           id="g200" /><g
                           id="g208"><g
                             clip-path="url(#clipPath164)"
                             id="g206"><g
                               id="g204"><path
                                 d="M 39.137,69.066 C 39.129,69.031 39.152,69.008 39.191,69 l 0.918,-0.102 c 0.047,-0.003 0.09,0.012 0.114,0.047 l 1.519,2.028 0.024,-0.004 -0.235,-2.168 c -0.004,-0.031 0.02,-0.059 0.059,-0.063 l 0.875,-0.093 c 0.039,0 0.066,0.015 0.07,0.05 l 0.406,3.715 c 0,0.035 -0.023,0.059 -0.062,0.063 l -0.918,0.101 c -0.043,0.004 -0.09,-0.008 -0.113,-0.047 l -1.504,-2.019 -0.035,0.004 0.234,2.164 c 0.004,0.031 -0.02,0.058 -0.059,0.062 l -0.879,0.094 c -0.035,0.004 -0.058,-0.02 -0.062,-0.051 l -0.406,-3.715"
                                 style="fill:#ffffff;fill-opacity:0.86547098;fill-rule:nonzero;stroke:none"
                                 id="path202"
                                 inkscape:connector-curvature="0" /></g></g></g></g><path
                         d="m 44.25,68.312 c -0.012,-0.031 0.008,-0.062 0.047,-0.066 l 0.957,-0.23 c 0.035,-0.012 0.062,0.007 0.07,0.039 l 0.879,3.636 c 0.012,0.032 -0.012,0.063 -0.047,0.071 l -0.953,0.226 C 45.168,72 45.137,71.98 45.129,71.945 L 44.25,68.312"
                         style="fill:#ffffff;fill-opacity:0.86547098;fill-rule:nonzero;stroke:none"
                         id="path212"
                         inkscape:connector-curvature="0" /><path
                         d="m 49.453,70.734 c -0.039,0.016 -0.074,0.012 -0.094,-0.023 L 46.75,67.707 c -0.023,-0.027 -0.012,-0.062 0.031,-0.078 l 0.965,-0.363 c 0.039,-0.02 0.066,-0.012 0.094,0.023 l 1.539,1.895 0.019,-0.004 -0.14,-2.43 c -0.004,-0.043 0.015,-0.07 0.054,-0.086 l 0.958,-0.367 c 0.042,-0.016 0.07,0.004 0.07,0.043 l 0.055,3.972 c 0.003,0.043 -0.016,0.071 -0.055,0.083 l -0.887,0.339"
                         style="fill:#ffffff;fill-opacity:0.86547098;fill-rule:nonzero;stroke:none"
                         id="path214"
                         inkscape:connector-curvature="0" /><path
                         d="m 51.621,65.688 c -0.019,-0.028 -0.008,-0.059 0.027,-0.079 l 2.426,-1.382 c 0.035,-0.02 0.071,-0.012 0.09,0.019 l 0.363,0.633 c 0.012,0.031 0.004,0.062 -0.027,0.082 l -1.496,0.844 c -0.02,0.015 -0.027,0.031 -0.016,0.054 l 0.289,0.5 c 0.012,0.024 0.032,0.028 0.051,0.016 l 1.227,-0.699 c 0.035,-0.02 0.062,-0.012 0.078,0.015 l 0.355,0.621 c 0.016,0.032 0.008,0.063 -0.023,0.083 l -1.223,0.695 c -0.027,0.012 -0.031,0.027 -0.019,0.051 l 0.308,0.531 c 0.012,0.023 0.028,0.023 0.043,0.012 l 1.496,-0.848 c 0.035,-0.02 0.067,-0.012 0.082,0.016 l 0.36,0.636 c 0.019,0.028 0.008,0.059 -0.024,0.082 l -2.433,1.379 c -0.032,0.02 -0.067,0.012 -0.082,-0.015 l -1.852,-3.246"
                         style="fill:#ffffff;fill-opacity:0.86547098;fill-rule:nonzero;stroke:none"
                         id="path216"
                         inkscape:connector-curvature="0" /><path
                         d="m 57.992,62.895 c -0.152,-0.192 -0.398,-0.2 -0.644,0 l -0.465,0.363 c -0.02,0.015 -0.024,0.031 -0.008,0.051 l 0.465,0.586 c 0.008,0.019 0.027,0.019 0.047,0.003 l 0.468,-0.367 c 0.247,-0.195 0.297,-0.433 0.137,-0.636 z m 1.656,2.011 c -0.043,0.035 -0.066,0.032 -0.109,0.008 l -1.32,-0.621 -0.321,0.25 c -0.023,0.012 -0.023,0.031 -0.011,0.047 l 0.797,1.008 c 0.015,0.027 0.015,0.058 -0.016,0.078 l -0.77,0.613 c -0.027,0.023 -0.062,0.023 -0.086,-0.004 l -2.316,-2.933 c -0.019,-0.028 -0.012,-0.063 0.016,-0.086 l 1.367,-1.078 c 0.769,-0.614 1.531,-0.555 1.976,0.015 0.301,0.379 0.348,0.844 0.118,1.281 l 1.527,0.664 c 0.031,0.016 0.039,0.055 0.004,0.082 l -0.856,0.676"
                         style="fill:#ffffff;fill-opacity:0.86547098;fill-rule:nonzero;stroke:none"
                         id="path218"
                         inkscape:connector-curvature="0" /><path
                         d="m 61.609,62.555 c -0.035,0.004 -0.07,-0.02 -0.07,-0.059 L 61.48,61.672 c 0,-0.039 0.024,-0.067 0.059,-0.07 0.324,-0.055 0.734,-0.223 1.02,-0.54 0.265,-0.289 0.296,-0.539 0.144,-0.683 -0.121,-0.117 -0.281,-0.098 -0.605,0.176 l -0.172,0.148 c -0.719,0.598 -1.332,0.711 -1.86,0.223 -0.527,-0.488 -0.457,-1.274 0.2,-1.981 0.398,-0.437 0.898,-0.734 1.347,-0.832 0.039,-0.011 0.067,0.008 0.075,0.047 l 0.128,0.766 c 0.004,0.035 -0.011,0.066 -0.046,0.078 -0.336,0.094 -0.633,0.258 -0.864,0.508 -0.215,0.23 -0.222,0.437 -0.082,0.566 0.121,0.11 0.297,0.082 0.61,-0.183 l 0.171,-0.149 c 0.723,-0.609 1.321,-0.699 1.856,-0.207 0.527,0.484 0.496,1.281 -0.281,2.121 -0.473,0.512 -1.149,0.848 -1.571,0.895"
                         style="fill:#ffffff;fill-opacity:0.86547098;fill-rule:nonzero;stroke:none"
                         id="path220"
                         inkscape:connector-curvature="0" /><path
                         d="m 62.488,56.473 c -0.027,-0.02 -0.031,-0.051 -0.011,-0.086 l 0.574,-0.797 c 0.023,-0.031 0.051,-0.039 0.082,-0.016 l 3.031,2.18 c 0.027,0.019 0.035,0.055 0.012,0.086 l -0.571,0.797 c -0.027,0.035 -0.054,0.035 -0.089,0.015 l -3.028,-2.179"
                         style="fill:#ffffff;fill-opacity:0.86547098;fill-rule:nonzero;stroke:none"
                         id="path222"
                         inkscape:connector-curvature="0" /><path
                         d="m 67.898,55.121 -0.011,0.02 c -0.008,0.011 -0.012,0.011 -0.032,0.019 -0.007,0 -0.015,0.004 -0.023,0 l -0.02,-0.008 -2.511,-1.394 c -0.02,-0.012 -0.031,-0.004 -0.043,0.012 l -0.004,0.003 -0.512,0.918 -0.004,0.016 c -0.008,0.016 -0.015,0.016 -0.023,0.02 h -0.008 c 0,0 -0.008,0 -0.008,0.003 -0.011,0 -0.023,-0.003 -0.035,-0.007 l -0.676,-0.371 c -0.023,-0.016 -0.031,-0.043 -0.027,-0.067 l 0.012,-0.019 1.586,-2.875 c 0.007,-0.016 0.019,-0.028 0.035,-0.032 0,0 0.008,0 0.015,0 0.004,0 0.02,0 0.032,0 l 0.675,0.371 c 0.012,0.012 0.024,0.024 0.028,0.043 0.004,0.008 0.004,0.02 -0.004,0.032 l -0.008,0.011 -0.508,0.922 c -0.008,0.012 -0.012,0.016 -0.008,0.024 -0.004,0 0,0.004 0.004,0.015 l 0.012,0.012 2.52,1.391 0.011,0.008 c 0.016,0.015 0.016,0.019 0.016,0.046 0.004,0.004 -0.004,0.016 -0.012,0.028 l -0.469,0.859"
                         style="fill:#ffffff;fill-opacity:0.86547098;fill-rule:nonzero;stroke:none"
                         id="path224"
                         inkscape:connector-curvature="0" /><g
                         id="g236"><g
                           id="g226" /><g
                           id="g234"><g
                             clip-path="url(#clipPath168)"
                             id="g232"><g
                               id="g230"><path
                                 d="m 70.16,50.348 c -0.015,0.031 -0.043,0.05 -0.078,0.035 l -1.344,-0.492 -2.601,0.429 c -0.039,0 -0.051,-0.035 -0.039,-0.07 l 0.34,-0.93 c 0.015,-0.043 0.042,-0.066 0.089,-0.074 l 1.477,-0.219 0.008,-0.019 -0.989,-1.113 C 66.988,47.859 66.988,47.82 67.004,47.781 l 0.336,-0.91 c 0.015,-0.047 0.047,-0.051 0.078,-0.027 l 1.707,2.008 1.344,0.496 c 0.027,0.011 0.039,0.043 0.027,0.082 l -0.336,0.918"
                                 style="fill:#ffffff;fill-opacity:0.86547098;fill-rule:nonzero;stroke:none"
                                 id="path228"
                                 inkscape:connector-curvature="0" /></g></g></g></g></g></g><g
                     id="g282"><path
                       d="M 5.656,39.336 5.648,38.211 C 5.645,37.602 5.352,37.285 4.902,37.285 c -0.453,0 -0.754,0.324 -0.75,0.934 l 0.004,1.125 c 0,0.019 0.016,0.035 0.035,0.035 l 1.43,-0.008 c 0.024,0 0.035,-0.012 0.035,-0.035 z M 3.848,38.25 C 3.844,37.676 3.551,37.359 3.129,37.363 2.688,37.367 2.414,37.684 2.414,38.258 l 0.008,1.097 c 0,0.02 0.008,0.036 0.035,0.036 L 3.816,39.383 C 3.84,39.379 3.852,39.367 3.852,39.348 Z m -1.676,1.5 c -0.035,0 -0.055,-0.023 -0.055,-0.066 l -0.008,-1.43 c -0.004,-0.813 0.383,-1.246 0.996,-1.25 0.465,0 0.758,0.262 0.864,0.656 H 3.98 c 0.055,-0.316 0.352,-0.734 0.911,-0.734 0.664,-0.004 1.058,0.469 1.062,1.308 l 0.008,1.434 c 0,0.035 -0.02,0.062 -0.055,0.062 l -3.734,0.02"
                       style="fill:#ffffff;fill-opacity:0.86547098;fill-rule:nonzero;stroke:none"
                       id="path242"
                       inkscape:connector-curvature="0" /><path
                       d="m 3.656,32.473 c -0.48,-0.067 -0.797,0.23 -0.886,0.836 l -0.153,1.086 c -0.004,0.023 0.008,0.035 0.028,0.039 l 1.437,0.199 c 0.023,0.004 0.035,-0.008 0.039,-0.035 L 4.27,33.52 C 4.359,32.91 4.137,32.539 3.656,32.473 Z m 2.774,0.289 c -0.012,0.035 -0.024,0.054 -0.063,0.066 l -1.781,0.66 -0.012,0.063 -0.148,1.094 C 4.422,34.668 4.43,34.68 4.453,34.68 l 1.617,0.23 c 0.035,0.004 0.055,0.031 0.047,0.067 l -0.031,0.23 c -0.008,0.039 -0.035,0.059 -0.07,0.055 L 2.316,34.75 C 2.285,34.742 2.266,34.715 2.273,34.68 l 0.196,-1.418 c 0.113,-0.797 0.586,-1.239 1.234,-1.145 0.527,0.074 0.844,0.449 0.887,1.004 l 1.816,-0.687 c 0.039,-0.016 0.063,0.004 0.059,0.043 L 6.43,32.762"
                       style="fill:#ffffff;fill-opacity:0.86547098;fill-rule:nonzero;stroke:none"
                       id="path244"
                       inkscape:connector-curvature="0" /><path
                       d="M 3.203,29.727 C 3.168,29.719 3.156,29.688 3.164,29.652 L 3.84,27.301 c 0.012,-0.039 0.043,-0.055 0.078,-0.047 l 0.18,0.055 c 0.035,0.007 0.047,0.035 0.039,0.074 l -0.582,2.035 c -0.008,0.023 0,0.035 0.019,0.043 l 1.317,0.375 C 4.91,29.844 4.93,29.832 4.938,29.809 l 0.496,-1.747 c 0.011,-0.035 0.043,-0.05 0.074,-0.046 l 0.183,0.058 c 0.036,0.008 0.047,0.031 0.039,0.071 l -0.5,1.75 c -0.011,0.023 0,0.043 0.02,0.046 l 1.375,0.391 c 0.02,0.004 0.031,-0.004 0.039,-0.023 L 7.25,28.273 c 0.012,-0.035 0.035,-0.054 0.07,-0.046 l 0.188,0.058 c 0.027,0.004 0.039,0.035 0.031,0.074 l -0.672,2.348 c -0.012,0.039 -0.039,0.059 -0.074,0.051 l -3.59,-1.031"
                       style="fill:#ffffff;fill-opacity:0.86547098;fill-rule:nonzero;stroke:none"
                       id="path246"
                       inkscape:connector-curvature="0" /><path
                       d="M 7.754,24.355 5.586,24.273 5.582,24.285 7.098,25.84 Z M 5.09,24.262 C 5.059,24.238 5.047,24.207 5.062,24.168 l 0.09,-0.203 c 0.02,-0.043 0.051,-0.051 0.086,-0.047 l 4.016,0.152 c 0.031,0.004 0.047,0.032 0.031,0.067 l -0.097,0.222 c -0.024,0.043 -0.04,0.059 -0.086,0.051 l -1.016,-0.039 -0.754,1.703 0.715,0.727 c 0.035,0.039 0.035,0.066 0.015,0.101 l -0.093,0.223 c -0.02,0.031 -0.047,0.043 -0.074,0.016 L 5.09,24.262"
                       style="fill:#ffffff;fill-opacity:0.86547098;fill-rule:nonzero;stroke:none"
                       id="path248"
                       inkscape:connector-curvature="0" /><path
                       d="M 6.805,20.797 C 6.777,20.777 6.773,20.746 6.789,20.711 l 0.125,-0.195 c 0.02,-0.032 0.055,-0.043 0.078,-0.024 L 8.875,21.664 8.07,18.762 C 8.059,18.711 8.059,18.68 8.086,18.645 l 0.156,-0.25 c 0.016,-0.036 0.059,-0.032 0.067,0.011 l 0.519,1.914 2.692,-0.043 c 0.042,-0.004 0.058,0.028 0.039,0.063 l -0.153,0.238 c -0.023,0.039 -0.047,0.055 -0.09,0.059 l -2.398,0.023 0.336,1.235 0.914,0.57 c 0.027,0.019 0.035,0.051 0.012,0.086 l -0.125,0.195 C 10.035,22.781 10,22.789 9.977,22.77 L 6.805,20.797"
                       style="fill:#ffffff;fill-opacity:0.86547098;fill-rule:nonzero;stroke:none"
                       id="path250"
                       inkscape:connector-curvature="0" /><path
                       d="M 9.527,16.77 C 9.5,16.75 9.5,16.715 9.52,16.684 l 0.144,-0.18 c 0.024,-0.031 0.059,-0.039 0.082,-0.02 l 2.949,2.305 c 0.024,0.02 0.028,0.047 0.004,0.078 l -0.144,0.188 c -0.024,0.031 -0.059,0.035 -0.086,0.011 L 9.527,16.77"
                       style="fill:#ffffff;fill-opacity:0.86547098;fill-rule:nonzero;stroke:none"
                       id="path252"
                       inkscape:connector-curvature="0" /><path
                       d="m 11.23,14.695 c -0.023,-0.023 -0.019,-0.058 0.004,-0.086 l 0.161,-0.168 c 0.031,-0.027 0.066,-0.046 0.121,-0.035 l 3.746,0.692 0.015,-0.016 -2.257,-2.211 c -0.028,-0.023 -0.024,-0.055 0.003,-0.086 l 0.165,-0.164 c 0.027,-0.027 0.062,-0.027 0.082,-0.004 l 2.668,2.61 c 0.023,0.023 0.023,0.058 -0.004,0.085 l -0.172,0.176 c -0.028,0.028 -0.059,0.043 -0.114,0.039 l -3.742,-0.711 -0.019,0.016 2.261,2.215 c 0.024,0.027 0.024,0.058 -0.003,0.086 l -0.165,0.168 c -0.023,0.023 -0.062,0.027 -0.082,0.004 l -2.668,-2.61"
                       style="fill:#ffffff;fill-opacity:0.86547098;fill-rule:nonzero;stroke:none"
                       id="path254"
                       inkscape:connector-curvature="0" /><path
                       d="m 16.062,12.625 c -0.402,-0.535 -0.515,-0.77 -0.578,-0.965 -0.179,-0.582 0.032,-1.113 0.59,-1.535 0.555,-0.418 1.086,-0.434 1.5,-0.238 0.028,0.011 0.043,0.039 0.024,0.074 l -0.11,0.191 c -0.015,0.028 -0.047,0.043 -0.078,0.032 -0.383,-0.149 -0.75,-0.118 -1.156,0.187 -0.422,0.324 -0.57,0.723 -0.442,1.152 0.047,0.149 0.157,0.368 0.54,0.879 0.39,0.508 0.566,0.672 0.703,0.754 0.375,0.246 0.8,0.207 1.222,-0.105 0.411,-0.313 0.571,-0.715 0.446,-1.145 -0.043,-0.152 -0.141,-0.355 -0.364,-0.648 -0.015,-0.016 -0.031,-0.02 -0.05,-0.004 l -0.774,0.586 c -0.027,0.019 -0.062,0.019 -0.082,-0.012 L 17.34,11.684 c -0.02,-0.028 -0.016,-0.063 0.015,-0.082 l 1.04,-0.786 c 0.027,-0.027 0.062,-0.023 0.082,0.004 l 0.14,0.184 c 0.231,0.308 0.367,0.574 0.426,0.75 0.187,0.578 -0.027,1.117 -0.578,1.535 -0.555,0.418 -1.121,0.481 -1.633,0.152 -0.172,-0.113 -0.363,-0.289 -0.77,-0.816"
                       style="fill:#ffffff;fill-opacity:0.86547098;fill-rule:nonzero;stroke:none"
                       id="path256"
                       inkscape:connector-curvature="0" /><path
                       d="m 21.461,6.859 c -0.016,-0.031 0,-0.062 0.031,-0.078 l 0.211,-0.093 c 0.039,-0.02 0.078,-0.028 0.121,0.003 l 3.25,1.993 0.02,-0.008 -1.313,-2.875 c -0.015,-0.031 0,-0.063 0.035,-0.082 l 0.211,-0.094 c 0.035,-0.012 0.067,-0.004 0.082,0.027 l 1.547,3.395 c 0.016,0.031 0,0.062 -0.035,0.078 L 25.398,9.23 C 25.363,9.242 25.324,9.246 25.281,9.223 l -3.238,-2.008 -0.027,0.012 1.316,2.882 c 0.016,0.032 0,0.063 -0.035,0.079 l -0.211,0.097 c -0.031,0.016 -0.063,0.004 -0.078,-0.027 L 21.461,6.859"
                       style="fill:#ffffff;fill-opacity:0.86547098;fill-rule:nonzero;stroke:none"
                       id="path258"
                       inkscape:connector-curvature="0" /><path
                       d="M 26.391,4.824 C 26.379,4.793 26.395,4.762 26.43,4.754 l 2.351,-0.692 c 0.035,-0.007 0.067,0.004 0.078,0.04 l 0.051,0.187 c 0.008,0.027 -0.012,0.059 -0.043,0.07 l -2.031,0.59 c -0.02,0.008 -0.031,0.024 -0.024,0.047 l 0.383,1.313 c 0.008,0.023 0.02,0.031 0.043,0.023 L 28.984,5.82 c 0.036,-0.011 0.067,0.004 0.078,0.039 l 0.055,0.184 c 0.004,0.031 -0.008,0.062 -0.047,0.07 l -1.746,0.512 c -0.023,0.008 -0.035,0.023 -0.027,0.043 l 0.402,1.367 c 0.004,0.027 0.02,0.031 0.043,0.027 l 2.031,-0.597 c 0.036,-0.012 0.067,0.004 0.075,0.039 l 0.054,0.184 C 29.91,7.719 29.895,7.75 29.855,7.758 L 27.512,8.445 C 27.473,8.457 27.441,8.441 27.43,8.41 L 26.391,4.824"
                       style="fill:#ffffff;fill-opacity:0.86547098;fill-rule:nonzero;stroke:none"
                       id="path260"
                       inkscape:connector-curvature="0" /><path
                       d="M 34.496,6.996 C 34.461,7 34.438,6.984 34.422,6.945 L 33.031,3.941 33.02,3.945 32.414,7.199 C 32.41,7.238 32.395,7.262 32.355,7.266 L 32.16,7.289 C 32.121,7.297 32.09,7.273 32.078,7.242 L 30.602,3.668 c -0.016,-0.039 0,-0.063 0.043,-0.07 L 30.871,3.57 c 0.047,-0.004 0.074,0.008 0.086,0.047 l 1.234,3.039 h 0.008 L 32.785,3.387 C 32.793,3.348 32.812,3.324 32.852,3.32 l 0.187,-0.023 c 0.047,-0.004 0.066,0.008 0.082,0.047 l 1.391,3.019 h 0.015 l 0.418,-3.25 C 34.953,3.07 34.969,3.055 35.02,3.047 L 35.242,3.02 c 0.047,-0.004 0.067,0.015 0.059,0.058 l -0.535,3.824 c -0.004,0.036 -0.024,0.063 -0.063,0.067 l -0.207,0.027"
                       style="fill:#ffffff;fill-opacity:0.86547098;fill-rule:nonzero;stroke:none"
                       id="path262"
                       inkscape:connector-curvature="0" /><path
                       d="m 39.445,4.977 c 0.071,-0.665 0.145,-0.915 0.235,-1.094 0.265,-0.547 0.781,-0.789 1.476,-0.711 0.696,0.066 1.098,0.422 1.262,0.848 0.008,0.023 0.004,0.05 -0.035,0.066 l -0.207,0.066 c -0.031,0.012 -0.063,0 -0.082,-0.031 C 41.922,3.75 41.625,3.523 41.121,3.473 40.598,3.414 40.215,3.602 40.012,4.008 39.941,4.148 39.871,4.379 39.805,5.016 39.738,5.652 39.758,5.895 39.801,6.047 39.91,6.484 40.246,6.75 40.77,6.801 41.285,6.855 41.68,6.676 41.875,6.273 41.949,6.137 42.02,5.918 42.051,5.555 42.055,5.531 42.043,5.52 42.02,5.516 L 41.055,5.418 C 41.016,5.414 40.996,5.383 41,5.352 l 0.016,-0.188 c 0.004,-0.031 0.031,-0.051 0.07,-0.047 l 1.297,0.133 c 0.039,0.004 0.062,0.031 0.058,0.062 L 42.418,5.547 C 42.375,5.93 42.297,6.215 42.215,6.383 41.957,6.934 41.43,7.176 40.746,7.105 40.055,7.031 39.594,6.688 39.449,6.102 39.398,5.902 39.375,5.645 39.445,4.977"
                       style="fill:#ffffff;fill-opacity:0.86547098;fill-rule:nonzero;stroke:none"
                       id="path264"
                       inkscape:connector-curvature="0" /><path
                       d="M 46.941,5.422 C 47.059,4.953 46.797,4.602 46.207,4.453 L 45.145,4.18 c -0.024,-0.008 -0.04,0 -0.043,0.023 l -0.36,1.406 c -0.004,0.02 0,0.036 0.031,0.039 l 1.059,0.27 c 0.59,0.156 0.988,-0.023 1.109,-0.496 z M 46.344,8.141 C 46.305,8.133 46.293,8.121 46.285,8.074 L 45.824,6.234 45.762,6.215 44.699,5.949 c -0.027,-0.008 -0.043,0 -0.047,0.016 L 44.25,7.547 C 44.238,7.582 44.211,7.602 44.176,7.59 L 43.953,7.531 C 43.91,7.52 43.895,7.492 43.902,7.461 L 44.824,3.84 c 0.008,-0.035 0.039,-0.051 0.074,-0.039 l 1.391,0.351 c 0.781,0.203 1.16,0.719 0.996,1.356 -0.125,0.515 -0.539,0.793 -1.097,0.773 l 0.48,1.879 c 0.016,0.039 -0.004,0.063 -0.043,0.055 L 46.344,8.141"
                       style="fill:#ffffff;fill-opacity:0.86547098;fill-rule:nonzero;stroke:none"
                       id="path266"
                       inkscape:connector-curvature="0" /><path
                       d="M 51.559,6.949 C 51.574,6.496 51.344,6.156 50.852,5.957 50.359,5.746 49.949,5.824 49.645,6.156 c -0.11,0.117 -0.25,0.328 -0.497,0.903 -0.234,0.574 -0.285,0.824 -0.289,0.988 -0.019,0.449 0.219,0.793 0.711,0.996 0.489,0.203 0.895,0.129 1.2,-0.203 0.109,-0.121 0.25,-0.332 0.492,-0.906 0.242,-0.575 0.289,-0.821 0.297,-0.985 z m -3.051,1.047 c 0.004,-0.215 0.058,-0.465 0.308,-1.078 0.254,-0.609 0.395,-0.82 0.547,-0.977 0.403,-0.445 0.961,-0.539 1.606,-0.269 0.636,0.266 0.965,0.726 0.937,1.324 -0.004,0.219 -0.058,0.469 -0.308,1.078 -0.25,0.61 -0.395,0.824 -0.539,0.981 C 50.648,9.496 50.09,9.594 49.449,9.324 48.809,9.059 48.48,8.598 48.508,7.996"
                       style="fill:#ffffff;fill-opacity:0.86547098;fill-rule:nonzero;stroke:none"
                       id="path268"
                       inkscape:connector-curvature="0" /><path
                       d="m 53.305,9.641 c -0.371,0.625 -0.207,1.132 0.379,1.484 0.586,0.348 1.117,0.258 1.488,-0.363 l 1.269,-2.114 c 0.02,-0.031 0.051,-0.035 0.082,-0.015 l 0.2,0.117 c 0.035,0.02 0.043,0.051 0.027,0.078 l -1.266,2.113 C 55,11.746 54.289,11.84 53.523,11.387 52.77,10.93 52.516,10.258 53,9.453 L 54.262,7.34 c 0.023,-0.028 0.05,-0.035 0.086,-0.016 l 0.199,0.121 c 0.031,0.02 0.043,0.051 0.023,0.082 l -1.265,2.114"
                       style="fill:#ffffff;fill-opacity:0.86547098;fill-rule:nonzero;stroke:none"
                       id="path270"
                       inkscape:connector-curvature="0" /><path
                       d="m 58.699,10.207 c 0.024,-0.027 0.059,-0.031 0.086,-0.004 l 0.184,0.152 c 0.031,0.024 0.051,0.055 0.043,0.106 l -0.36,3.801 0.016,0.015 2.004,-2.449 c 0.023,-0.023 0.055,-0.027 0.086,0 l 0.176,0.149 c 0.031,0.023 0.035,0.058 0.015,0.082 l -2.375,2.89 c -0.019,0.024 -0.054,0.028 -0.082,0 L 58.301,14.793 C 58.273,14.766 58.25,14.734 58.258,14.68 l 0.379,-3.793 -0.016,-0.012 -2.016,2.441 c -0.019,0.032 -0.054,0.036 -0.082,0.012 L 56.34,13.172 C 56.309,13.148 56.309,13.113 56.328,13.09 l 2.371,-2.883"
                       style="fill:#ffffff;fill-opacity:0.86547098;fill-rule:nonzero;stroke:none"
                       id="path272"
                       inkscape:connector-curvature="0" /><path
                       d="m 60.367,16.367 0.645,0.711 c 0.371,0.41 0.742,0.563 1.148,0.402 0.184,-0.07 0.356,-0.179 0.836,-0.617 0.484,-0.441 0.613,-0.593 0.703,-0.773 0.203,-0.379 0.086,-0.774 -0.285,-1.18 l -0.637,-0.715 c -0.015,-0.015 -0.035,-0.019 -0.05,-0.004 l -2.356,2.129 c -0.023,0.012 -0.019,0.032 -0.004,0.047 z m 2.328,-2.629 c 0.024,-0.023 0.063,-0.019 0.086,0.008 l 0.895,0.992 c 0.476,0.528 0.597,1.043 0.336,1.539 -0.114,0.211 -0.25,0.383 -0.77,0.856 -0.523,0.472 -0.711,0.586 -0.933,0.676 -0.516,0.211 -1.016,0.039 -1.493,-0.489 l -0.894,-0.992 c -0.031,-0.031 -0.031,-0.062 0,-0.086 l 2.773,-2.504"
                       style="fill:#ffffff;fill-opacity:0.86547098;fill-rule:nonzero;stroke:none"
                       id="path274"
                       inkscape:connector-curvature="0" /><path
                       d="M 53.734,49.188 C 52.773,48.758 51.777,48.395 50.148,47.406 45.57,44.617 44.18,40.465 46.75,33.223 c 1.492,-4.2 2.207,-7.731 1.84,-11.547 -0.051,-0.035 -0.106,-0.067 -0.156,-0.102 -0.243,4.789 -2.008,7.77 -5.172,12.817 -6.703,10.683 0.105,18.511 3.336,20.945 2.851,-1.438 5.3,-3.559 7.136,-6.148"
                       style="fill:#ffffff;fill-opacity:0.86547098;fill-rule:nonzero;stroke:none"
                       id="path276"
                       inkscape:connector-curvature="0" /><path
                       d="m 40.156,34 c 5.168,-6.086 6.848,-8.895 7.196,-13.078 -0.055,-0.031 -0.11,-0.067 -0.161,-0.098 -1.199,5.012 -4.203,7.664 -12.117,12.942 -8.531,5.672 -8.144,15.437 -5.972,21.507 2.64,1.356 5.636,2.133 8.808,2.133 0.68,0 1.348,-0.039 2.004,-0.109 C 33.762,47.961 34.188,41.02 40.156,34"
                       style="fill:#ffffff;fill-opacity:0.86547098;fill-rule:nonzero;stroke:none"
                       id="path278"
                       inkscape:connector-curvature="0" /><path
                       d="m 36.996,29.508 c 5.707,-2.477 8.418,-6.238 9.195,-9.188 -0.046,-0.023 -0.101,-0.047 -0.148,-0.07 -2.488,5.199 -7.445,6.066 -15.93,7.207 -5.035,0.676 -8.941,3.555 -11.304,7.121 -0.192,1.086 -0.293,2.207 -0.293,3.352 0,4.636 1.617,8.89 4.312,12.234 C 22.59,35.602 30.152,32.48 36.996,29.508"
                       style="fill:#ffffff;fill-opacity:0.86547098;fill-rule:nonzero;stroke:none"
                       id="path280"
                       inkscape:connector-curvature="0" /></g></g></g></g></g></g></g></g></g></svg>